<?xml version='1.0' encoding='utf-8'?>
<svg xmlns="http://www.w3.org/2000/svg" enable-background="new 0 0 2560 1600" viewBox="0 0 2560 1600" y="0px" x="0px" id="Layer_1" version="1.1"><metadata id="metadata37"/><defs id="defs35"><filter height="1.24" y="-0.12" width="1.24" x="-0.12" id="filter4612" style="color-interpolation-filters:sRGB"><feGaussianBlur id="feGaussianBlur4614" stdDeviation="53.395203"/></filter></defs><radialGradient gradientUnits="userSpaceOnUse" r="1067.3331" cy="800" cx="1280" id="SVGID_1_"><stop id="stop2" style="stop-color:#F9B56C" offset="0"/><stop id="stop4" style="stop-color:#F6A64F" offset="0.501"/><stop id="stop6" style="stop-color:#CA5B26" offset="1"/></radialGradient><radialGradient gradientUnits="userSpaceOnUse" r="533.9524" cy="956.3359" cx="1257" id="SVGID_2_"><stop id="stop11" style="stop-color:#FCFBF6" offset="0"/><stop id="stop13" style="stop-color:#FCF9F2" offset="0.1619"/><stop id="stop15" style="stop-color:#FBF3E7" offset="0.3169"/><stop id="stop17" style="stop-color:#FBE9D3" offset="0.469"/><stop id="stop19" style="stop-color:#FADCB8" offset="0.6195"/><stop id="stop21" style="stop-color:#F9CA95" offset="0.7687"/><stop id="stop23" style="stop-color:#F7B46B" offset="0.9149"/><stop id="stop25" style="stop-color:#F6A64F" offset="1"/></radialGradient><g id="g4619"><rect fill="url(#SVGID_1_)" width="2560" height="1600" id="rect9"/><circle fill="url(#SVGID_2_)" cx="1257" cy="956.336" r="533.952" id="circle28" style="filter:url(#filter4612)"/><path fill="#030101" d="M1508.819,454.866c5.677-2.515,12.045-1.502,18.03-1.066c5.567,0.727,11.362-0.405,16.748,1.59 c-0.22,8.526,0.211,17.065-0.269,25.582c-0.08,7.244,2.873,8.215,1.031,15.458c-0.959,3.809-1.046,37.714-1.647,43.991 c0.559,7.827-3.167,48.002,0.269,59.175c8.495,0.925,22.065,3.857,24.283,3.51c13.241,1.9,6.054-0.655,22.033,2.616 c9.664,1.917-1.457,6.17,36.231,6.927c3.536,2.466,7.971,2.581,12.067,3.356c4.906,0.33,9.781,2.162,14.727,1.198 c3.514-0.467,7.064-0.044,10.556,0.454c1.365,0.181,2.638,1.11,3.048,2.475c0.355,1.221,4.785,6.734,5.522,16.308 c-0.183,8.917,0.404,15.114-5.84,22.482c-3.401,3.586-4.557,3.297-13.494,1.458c-0.448-0.082-51.239-8.523-65.856-10.081 c-2.074-0.348-4.404,0.216-6.166-1.167c-6.123-3.856-16.052-5.239-24.429-5.919c-5.293-0.41-10.221-2.973-15.572-2.871 c0,2.215-0.33,4.408-0.458,6.619c-1.332,52.253,4.272,144.951,4.272,144.951c-0.089,0.493-1.834,31.942,0.11,57.216 c-0.031,3.114,0.925,6.143,0.894,9.257c-0.031,6.02-0.009,12.036-0.013,18.056c0.317,0.282,0.652,0.577,1.009,0.872 c1.246-0.026,2.519,0.035,3.779-0.119c0.396-0.476,0.713-1.017,1.088-1.524c2.065-0.643,4.219-0.555,6.302-0.031 c0.317,0.388,0.665,0.78,1.022,1.176c1.651,0.339,3.329,0.537,5.034,0.599c1.176-5.003-1.673-10.129-0.189-15.119 c1.271-5.978,3.684-4.322-0.669-14.639c-1.471-3.651-3.55-7.051-4.677-10.834c-0.634-1.894-0.735-4.016-2.052-5.611 c0.018-2.858-0.806-5.677-0.476-8.539c0.2-2.03,2.352-4.88,1.753-11.838c-1.757,2.07-1.828,5.857-5.073,6.324 c-1.872,0.806-2.783-1.48-3.175-2.898c-0.581-1.854,0.586-3.528,1.295-5.148c0.81-1.506-0.55-2.986-0.969-4.404 c0.995-0.92,2.079-1.766,2.937-2.832c1.365-2.131,0.136-4.652,6.438-8.037c1.22-0.511,1.392-1.942,1.748-3.061 c0.749-2.127,1.819-4.113,2.686-6.196c2.62-5.63,2.854-5.365,7.892-5.707c7.347,4.16,6.17,9.486,5.936,14.026 c2.044,0.975,5.781,1.686,7.112,8.654c0.361,2.237,1.713,4.307,1.427,6.641c0.489,2.039,1.356,3.999,1.537,6.113 c0.329,3.623-3.711,3.631-6.544,5.377c0.458,1.053,1.348,1.828,1.973,2.796c-0.115,1.233-0.674,2.427-0.44,3.686 c0.308,2.03-0.44,4.052-0.097,6.086c1.18,1.092,3.14,0.735,4.259,1.973c1.502,1.237,0.85,3.369,0.982,5.06 c-0.581,0.181-1.119,0.379-1.656,0.577c-0.216,0.872-0.427,1.748-0.647,2.625c-1.572,0.013-3.136,0-4.686-0.018 c-0.445,1.92-0.806,3.858-1.013,5.818c-0.291,3.017-1.92,5.729-1.973,8.79c-0.172,4.43-1.436,8.715-2.907,12.868 c1.889-0.652,3.783-1.66,5.853-1.387c4.828,0.51,7.205,4.897,9.187,4.783c3.021,0.238,6.218-0.559,9.103,0.7 c1.859,0.687,3.796,1.114,5.73,1.581c0.366-1.74,5.889-14.88,8.218-18.056c4.25-0.154,8.513,0.026,12.736,0.555 c2.562,1.223-1.947,16.509-3.334,19.791c13.357-0.705,4.319-1.902,15.119-0.991c0.013,0.348,0.044,1.048,0.057,1.396 c2.73-0.427,5.333-1.445,8.108-1.651c1.854-2.519,5.791-2.656,7.949-0.427c1.083-0.462,2.158-0.96,3.25-1.445 c0.546,0.181,1.11,0.366,1.709,0.555c2.493-1.189,5.267-0.44,7.777,0.313c2.233,2.316,5.531,3.413,8.698,3.616 c1.475,0.273,2.356,1.691,3.25,2.788c0.757,0.357,1.541,0.7,2.334,1.044c1.323,5.594-0.821,4.53-1.718,7.883 c0.551,4.577,4.966,2.711,2.99,7.87c-0.542,1.814-1.612,3.387-2.418,5.078c-0.379,0.762,0.489,1.356,0.779,2.013 c0.942,1.378,0.731,3.105,1,4.681c0.81,0.709,1.902,1.008,2.867,1.51c0.022,0.317,0.057,0.947,0.079,1.264 c-3.876,7.244-3.252,5.202-2.77,9.257c0.592,3.722-2.745,2.472,3.321,9.398c-0.762,2.268-2.07,4.466-1.863,6.945 c0.366,0.925,1.145,1.607,1.647,2.475c-0.361,1.123-0.89,2.189-1.334,3.281c0.942,0.788,1.986,1.484,2.823,2.413 c-0.63,0.947-1.401,1.784-2.079,2.691c1.282-0.167,2.576-0.035,3.726,0.639c0.101,0.581,0.216,1.167,0.361,1.762 c0.286,0.026,0.854,0.079,1.136,0.106c0.713,0.326,1.502,1.026,2.343,0.542c1.361-0.687,2.761-1.343,4.338-0.942 c0.088,0.238,0.269,0.713,0.361,0.951c6.843,2.697,5.248,0.616,9.143,4.263c-0.013,0.299-0.031,0.898-0.044,1.198 c6.233,2.923,2.374,2.229,7.152,2.7c1.193-3.735-0.7-7.416-0.515-11.16c-0.04-1.405,1.101-2.387,1.845-3.444 c1.718-2.132,1.356-5.139,2.788-7.407c1.277-0.978,2.88-1.409,4.276-2.224c-0.031-0.304-0.092-0.912-0.123-1.22 c-2.607-0.489-3.453-3.18-4.527-5.232c-1.127-2.259-0.322-4.756-0.057-7.104c0.304-2.484,2.682-4.074,4.998-4.417 c1.379-0.225,2.722,0.322,4.034,0.727c0.687-0.295,1.378-0.639,2.136-0.819c0.643,0.286,1.242,0.718,1.867,1.11 c0.141,2.576-0.771,5.091-0.344,7.676c0.269,1.436-0.625,2.656-1.533,3.651c0.057,1.044-0.273,2.356,0.661,3.127 c1.524,1.264,3.62,1.537,5.179,2.774c6.204,5.023,2.613,14.917,2.559,25.569c0.691,0.075,1.422,0.159,2.162,0.26 c0.233-0.163,0.7-0.493,0.934-0.656c0.621,0.07,1.268,0.145,1.933,0.229c-0.343-0.841-0.669-1.665-1-2.488 c0.647-1.202,1.163-2.823,2.863-2.629c0.418,0.48,0.868,0.969,1.326,1.462c0.132,0.555,0.308,1.132,0.533,1.691 c0.414-0.255,0.841-0.515,1.286-0.779c-0.136-1.048-0.238-2.092-0.299-3.136c0.832-0.352,1.682-0.691,2.546-1.026 c1.414,0.744,2.726,1.669,4.065,2.568c-0.211-0.806-0.396-1.599-0.573-2.391c0.581-0.022,1.185-0.04,1.806-0.044 c0.282-0.476,0.603-0.938,0.929-1.396c-0.286-0.696-0.546-1.387-0.78-2.079c1.268-0.167,2.554,0,3.625,0.788 c0.752,2.484,2.018,3.724,3.29,1.656c3.812,1.862,2.486,1.137,3.329-0.277c1.449-0.018,2.907-0.057,4.378-0.088 c0.432-0.85,1.061-1.563,1.828-2.136c0.097-0.273,0.282-0.815,0.379-1.088c1.141,0.374,2.264,0.828,3.44,1.185 c0.819-0.912,1.753-1.753,2.955-2.14c0.145,0.471,0.304,0.947,0.489,1.431c1.295,0.52,2.625,1.017,4.056,1.097 c0.533-0.942,1.127-1.845,1.748-2.739c1.017,0.013,2.052,0.031,3.105,0.053c0.255,1.154,0.066,2.316-0.282,3.435 c-0.572-0.004-1.119-0.004-1.643,0.004c-0.018,0.881-0.026,1.77-0.013,2.669c-0.458,0.326-0.916,0.652-1.317,0.995 c-1.259,0.022-2.136-0.696-2.682-1.757c-0.634,0.986-1.273,2.171-2.642,1.784c-0.524-1.471-1.555-2.638-2.651-3.69 c-0.41,0.018-1.229,0.057-1.634,0.075c0.568,0.335,1.171,0.683,1.788,1.031c-0.211,0.81-0.418,1.621-0.599,2.444 c0.797,0.088,1.621,0.185,2.457,0.282c-0.075,1.546-1.031,2.788-2.013,3.897c-0.687,0.339-1.348,0.705-1.977,1.101 c-0.181,1.392-1.017,2.51-1.819,3.602c1.673,0.154,3.321-0.211,4.549-1.436c1.467,0.652,2.453,1.92,3.497,3.1 c0.106-0.15,0.313-0.449,0.414-0.599c-1.066-1.577-1.748-3.351-2.303-5.153c1.053-1.361,2.788-1.317,4.356-1.251 c-0.194,0.551-0.348,1.11-0.502,1.669c-1.03,0.595-1.916,1.4-1.854,2.691c1.66,0.163,3.338-0.004,5.016-0.128 c0.986-0.145,1.616,0.815,2.409,1.273c0.04-1.079-0.238-2.083-0.639-3.048c0.37-0.577,0.731-1.163,1.145-1.722 c0.352,0.057,0.722,0.123,1.114,0.194c0.141-0.581,0.295-1.163,0.476-1.731c0.696-0.106,1.409-0.207,2.153-0.304 c0.167,0.189,0.507,0.573,0.674,0.762c1.55-0.859,3.307-1.541,4.32-3.1c1.264-0.079,2.55-0.198,3.805-0.484 c0.167,1.33,0.242,2.673,0.357,4.021c-0.612,0.379-1.207,0.749-1.717,1.224c0.062,0.445,0.163,0.89,0.304,1.339 c0.89,0.031,1.801,0.07,2.726,0.123c-0.145,0.868-0.295,1.735-0.432,2.612c0.652,0.528,1.277,1.088,1.925,1.665 c0.145-0.388,0.436-1.171,0.581-1.559c1.771,1.048,3.325,2.422,5.06,3.554c0.806-0.608,1.616-1.224,2.418-1.863 c2.484-0.088,5.047-0.33,7.346-1.378c0.41-0.599,0.859-1.193,1.348-1.744c0.022,2.594,2.114,4.8,1.334,7.425 c0.374-0.009,1.132-0.022,1.51-0.031c-0.004,1.748,0.066,3.541,0.819,5.157c1.356,0.15,3.572,0.383,3.052,2.369 c0.727-1.017,1.964-0.951,3.092-1.004c0.15,0.238,0.449,0.718,0.603,0.956c-0.758,0.643-1.63,1.22-2.043,2.145 c0.652,0.634,1.396,1.202,2.109,1.806c0.317-0.013,0.943-0.044,1.259-0.057c0.348-1.436,0.071-2.889-0.317-4.276 c0.951-0.092,1.929-0.194,2.902-0.335c0.013-0.568,0.057-1.132,0.119-1.687c0.493-0.066,1.009-0.128,1.55-0.181 c0.115,0.172,0.339,0.515,0.454,0.687c-0.542,1.048-1.013,2.127-1.458,3.219c0.933,0.775,1.929,1.497,3.056,2.008 c0.502-1.537,0.995-3.083,1.334-4.668c0.37-0.154,0.749-0.304,1.185-0.436c0.436,0.599,1.092,0.929,1.81,1.185 c-0.599-1.07-1.167-2.149-1.585-3.29c0.586-0.035,1.198-0.062,1.828-0.079c0.546-0.167,1.136-0.335,1.744-0.427 c0.445,0.766,0.74,1.607,1.101,2.44c0.291-0.528,0.617-1.048,0.951-1.563c0.392,0.009,0.815,0.031,1.264,0.062 c0.432,0.304,0.929,0.63,1.44,0.912c0.106-0.361,0.317-1.088,0.423-1.449c0.317,0.04,0.947,0.119,1.259,0.159 c-0.277,0.938-0.559,1.876-0.859,2.81c0.15,0.181,0.33,0.366,0.533,0.564c0,1.876-0.079,3.779,0.26,5.641 c0.502,0.603,1.422,0.458,2.158,0.669c0.577,1.127,1.163,2.264,1.722,3.417c0.608-0.031,1.233-0.048,1.885-0.062 c-0.035-0.533-0.053-1.057-0.044-1.572c-0.502-0.233-0.982-0.458-1.44-0.683c0.044-0.229,0.128-0.691,0.167-0.92 c0.938-0.445,1.876-0.925,2.819-1.4c0.233-0.55,0.471-1.097,0.753-1.629c-0.616-0.313-1.202-0.612-1.779-0.903 c-0.26-2.026-0.973-4.21-2.695-5.448c0.009-0.264,0.026-0.797,0.035-1.066c1.603-0.145,3.043,0.59,4.083,1.792 c0.89,0.044,1.797,0.084,2.726,0.101c0.295,0.854,0.608,1.709,0.947,2.563c-0.335,0.617-0.691,1.229-0.876,1.907 c1.114,0.973,2.321,1.867,3.316,2.999c-0.392,0.088-1.18,0.273-1.572,0.361c-0.172,0.744-0.321,1.497-0.41,2.259 c0.709,0.991,0.907,2.198,1.074,3.396c2.627-2.217,2.536-1.276,4.862,0.894c-0.867,0.863-1.722,1.722-2.554,2.607 c0.586,0.189,1.185,0.7,1.88,0.603c0.559-0.524,1.013-1.167,1.59-1.7c0.797-0.229,1.66-0.159,2.523-0.194 c0.779,1.339,1.801,2.572,3.144,3.4c0.242,0.343,0.511,0.696,0.801,1.057c0.335,0.009,1,0.022,1.335,0.031 c-0.172,0.709-0.313,1.422-0.454,2.145c0.092,0.55,0.251,1.101,0.33,1.682c-1.392,0.907-3.083,0.15-4.527-0.15 c-0.018,0.427-0.057,1.282-0.075,1.709c-1.955-0.96-4.034-1.559-6.214-1.444c0.687,1.317,1.533,2.559,2.198,3.906 c-1.207,0.035-2.339-0.255-3.422-0.7c-0.885-0.533-1.458,0.832-2.281,0.603c-0.616-1.211-0.903-2.678-2.215-3.347 c0.057-0.793-0.123-1.484-0.987-1.638c-0.026,0.401-0.088,1.198-0.119,1.594c-0.595-0.031-1.171-0.057-1.722-0.075 c-0.969,0.634-1.982,1.189-3.043,1.612c-0.181,1.145-0.374,2.294-0.542,3.448c0.714,0.524,1.418,1.083,2.118,1.669 c1.26-0.167,2.501-0.498,3.712-0.934c0.41,0.238,0.863,0.489,1.33,0.749c-0.427,0.647-0.845,1.308-1.211,1.986 c0.841-0.176,1.722-0.366,2.594-0.555c0.568,1.669,1.894,2.88,3.065,4.149c0-0.388,0-1.158-0.004-1.541 c0.577,0.088,1.198,0.194,1.828,0.304c0.383,0.502,0.793,1.009,1.224,1.519c0.617,0.057,1.26,0.119,1.925,0.189 c-0.432,1.577-1.48,2.964-3.034,3.545c0.04,0.233,0.119,0.7,0.163,0.934c-0.85,0.863-1.559,1.845-1.999,2.973 c2.383,1.123,4.915,2.55,7.658,2.061c1.013-1.251,1.647-2.783,2.77-3.964c1.154-1.229,2.255-2.51,3.237-3.889 c1.836-0.123,3.972,0.194,5.575-0.872c1.061-2.145,3.444-3.453,3.919-5.888c0.612-2.079,0.714-4.254,1.07-6.377 c0.432-2.634,3.294-4.717,5.923-4.038c1.541,0.33,3.127,0.379,4.721,0.414c0.502,0.837,0.934,1.753,1.647,2.471 c2.127,1.097,5.042-0.026,6.742,1.973c1.03,1.163,2.449,1.823,3.932,2.246c6.008,4.032,4.963,1.475,8.103,2.396 c0.551-0.145,1.119-0.282,1.722-0.405c-0.185-0.555-0.374-1.11-0.502-1.647c1.462-0.004,2.973-0.018,4.391-0.515 c0.132-1.224,0.462-2.405,0.964-3.523c0.758,0.004,1.524,0.009,2.334,0.026c0.044-0.313,0.136-0.942,0.185-1.255 c0.52-0.04,1.066-0.075,1.651-0.093c0.176,0.299,0.533,0.898,0.713,1.198c-0.017-0.731-0.013-1.458,0.013-2.18 c0.537,0.145,1.123,0.304,1.709,0.471c0.731-0.176,1.458-0.335,2.237-0.471c0.009-1.286,0.035-2.568,0.075-3.845 c0.436,0.066,0.898,0.141,1.383,0.225c0.586,0.705,1.172,1.445,1.902,2.043c0.652-0.48,1.282-1.009,1.933-1.519 c-0.022-1.088-0.026-2.171,0.035-3.246c1.497,0.7,2.405,2.237,4.016,2.779c-0.119-1.053-0.48-2.087-0.37-3.14 c0.392-1.013,0.978-1.933,1.48-2.898c0.291,0.062,0.612,0.132,0.969,0.216c3.355,2.137-0.13-0.348,3.501,2.383 c-0.053-0.797-0.079-1.59-0.079-2.374c0.551,0.379,1.119,0.771,1.704,1.176c0.784-0.876,1.251-1.96,1.669-3.052 c1.409-0.11,2.818-0.352,4.232-0.603c-0.018-0.863-0.009-1.717,0.022-2.563c1.859,0.489,3.779,0.568,5.707,0.599 c0.216-0.652,0.449-1.299,0.7-1.938c0.335,0.022,0.705,0.053,1.105,0.097c0.599,0.612,1.035,1.665,2.026,1.744 c0.542-1.149,0.797-2.4,1.141-3.616c0.234,0.031,0.705,0.092,0.943,0.119c0.506,1.568,1.127,3.1,1.828,4.602 c0.066-0.282,0.194-0.846,0.255-1.127c1.207-0.304,2.488-0.608,3.638,0.128c0.436-0.445,0.898-0.885,1.387-1.308 c0.066,0.757,0.136,1.55,0.339,2.312c0.669,1.026,1.546,1.903,2.347,2.854c0.528-0.22,1.088-0.427,1.673-0.625 c0.154,0.317,0.453,0.951,0.608,1.264c0.031-0.343,0.092-1.035,0.123-1.378c1.268-0.912,2.36-2.061,3.012-3.505 c1.259,1.255,1.273,3.184,2.22,4.655c0.357-1.37,0.718-2.735,1.105-4.091c0.392,0.128,0.819,0.264,1.273,0.414 c0.48-0.863,1.475-0.749,2.339-0.868c0.238,1.334,0.449,2.678,0.603,4.034c0.691,0.167,1.409,0.357,2.136,0.55 c-0.026,0.846-0.035,1.695-0.018,2.554c1.436,0.656,3.122,0.92,4.303,2.079c0.194,0.084,0.581,0.251,0.775,0.335 c2.6,2.694,14.588,7.447,15.524,12.573c-0.443,2.005-0.239,13.721-0.203,14.163c0.52,0.608,1.057,1.229,1.599,1.858 c0.005,1.348,0.026,2.7,0.066,4.056c1.154,0.921,1.519,2.387,2.308,3.58c0.551,0.115,1.127,0.211,1.735,0.299 c-0.225,0.925-0.445,1.85-0.634,2.783c-0.37,0.33-0.709,0.674-1.026,1.022c0.502,0.502,1.022,1.004,1.572,1.515 c-0.022,1.088-0.031,2.176-0.026,3.276c3.84-2.009,5.714,0.301,8.372-0.013c0.907-0.445,1.541-1.286,2.312-1.942 c0.079-1.537-0.321-2.999-1.224-4.232c1.207-1.894,0.405-4.144,0.48-6.223c0.625,0.185,1.282,0.392,1.947,0.603 c-0.097,0.599-0.176,1.207-0.229,1.819c0.344-0.031,1.031-0.088,1.374-0.119c0.057,0.665,0.295,1.255,0.709,1.77 c0.634-0.837,1.154-1.753,1.74-2.634c-0.471-0.528-0.912-1.057-1.339-1.568c0.106-1.951,0.291-3.897,0.348-5.848 c1.18-0.207,2.374-0.423,3.589-0.577c-0.026-0.586-0.013-1.163,0.035-1.726c1.004-0.63,2.021-1.572,3.29-0.89 c-0.145-1.577-0.123-3.158-0.119-4.734c0.533-0.04,1.092-0.075,1.678-0.097c-0.079,1.167-0.224,2.343-0.141,3.523 c0.383,0.506,0.894,0.951,1.387,1.414c0,1.436-0.057,2.907,0.471,4.281c0.185-0.744,0.379-1.489,0.585-2.224 c0.643,0.203,1.308,0.414,1.995,0.634c0.022-2.008,0.647-3.911,1.119-5.84c0.238-0.004,0.713-0.013,0.947-0.018 c0.802-1,1.647-2.087,2.885-2.576c2.14-0.132,4.272,0.594,6.426,0.198c0.097,1.48,0.114,2.968,0.15,4.461 c0.669-0.617,1.339-1.251,2.035-1.863c0.048,0.608,0.114,1.22,0.207,1.845c0.401,0.379,0.841,0.771,1.291,1.163 c0-1.651,0.031-3.299,0.11-4.941c0.485,0.004,0.995,0.018,1.533,0.035c0.317,1.145,0.577,2.316,0.885,3.479 c-0.132,0.771-0.233,1.55-0.295,2.334c1.916-0.533,3.783-1.387,5.817-1.44c-0.537-1.744-0.881-3.536-1.127-5.333 c1.466-0.181,2.924-0.559,4.426-0.608c1.268,0.436,2.444,1.436,3.871,1.326c1.224-0.418,2.241-1.277,3.404-1.863 c0.379-2.004,0.211-4.03-0.678-5.87c1.546,0.084,3.114,0.128,4.686,0.018c-0.088-0.793-0.18-1.577-0.233-2.352 c0.938-0.991,1.88-1.982,2.682-3.096c0.652,0.282,1.33,0.586,2.008,0.912c0.665,0.057,1.356,0.119,2.087,0.198 c-0.04-0.876-0.062-1.744-0.066-2.607c1.031-0.035,2.083-0.216,2.942-0.881c0.617-0.088,1.255-0.159,1.938-0.229 c0.22-0.159,0.66-0.48,0.881-0.639c2.294-0.484,4.615,0.159,6.646,1.255c0.656-0.669,1.062-1.537,1.546-2.343 c1.339,0.092,2.651,0.48,3.893,1.039c0.132,0.396,0.299,0.797,0.489,1.207c1.004-0.207,2.017-0.383,3.07-0.533 c0.04,0.308,0.119,0.925,0.158,1.233c0.735,0.828,1.48,1.673,2.215,2.537c1.365-0.053,2.783-0.282,4.157,0.053 c0.458,0.462,0.802,1.035,1.233,1.577c2.29,0.251,4.857,0.009,6.311-2.035c0.559-0.238,1.145-0.458,1.757-0.674 c0.132,0.947,0.317,1.902,0.498,2.858c-0.295,0.207-0.881,0.625-1.176,0.832c0.48,0.625,0.995,1.242,1.541,1.854 c1.475-0.167,3.087-0.432,4.386,0.542c0.867,0.709,1.713-0.41,2.532-0.749c-0.088-0.586-0.154-1.163-0.185-1.731 c2.004,0.044,4.008-0.018,6.033-0.026c0.198-0.22,0.595-0.661,0.797-0.881c1.581-0.004,3.171,0,4.783,0.035 c0.625-1.185,1.189-2.4,1.761-3.616c0.709,0.066,1.449,0.145,2.215,0.242c0.753,0.551,1.903,1.136,2.418-0.097 c0.986-0.053,1.999-0.079,3.03-0.092c0.194-0.238,0.586-0.718,0.784-0.956c1.321,0.088,2.656,0.339,3.941,0.749 c1.356-0.313,2.73,0.004,4.078,0.313c0.189,0.198,0.573,0.603,0.766,0.806c0.92-0.009,1.858-0.004,2.827,0.009 c0.167-0.22,0.502-0.661,0.669-0.876c0.951-0.013,1.925-0.018,2.92-0.022c-0.022,0.304-0.057,0.907-0.079,1.211 c0.973-0.194,1.955-0.251,2.986-0.352c-3.215-4.725-2.65-4.136-1.805-7.901c0.938,0.048,1.898,0.079,2.889,0.145 c2.144-1.682-0.263-0.862,7.218,0.824c0.797-0.744,1.352-1.687,1.731-2.713c0.757-0.203,1.528-0.383,2.334-0.546 c0.335-0.713,0.7-1.414,1.088-2.105c1.951,0.379,3.796-0.37,5.606-1.017c-0.053,1.035-0.106,2.083-0.141,3.131 c0.344,0.057,1.022,0.181,1.365,0.238c2.017,1.026,4.32-0.07,6.491,0.361c0.348,0.374,0.735,0.74,1.158,1.097 c0.81-0.418,0.868-1.449,1.308-2.176c0.387-1.105,1.634-1.55,2.149-2.581c0.467-0.89,0.916-1.792,1.427-2.669 c0.643,0.053,1.326,0.119,2.031,0.189c0,1,0.013,2.004,0.044,3.012c-0.656,0.352-1.48,0.537-1.748,1.295 c0.207,0.771,0.577,1.497,0.929,2.242c0.401-0.401,0.806-0.802,1.259-1.189c5.475,0.317,3.701-0.096,4.4,2.924 c-0.603,0.414-1.202,0.802-1.687,1.312c-0.154,0.89-0.123,1.797-0.132,2.704c-0.731-0.163-1.431-0.326-2.11-0.502 c-0.031,0.7-0.018,1.414,0.009,2.132c-1.123-0.07-2.211-0.172-3.281-0.357c-1.458,0.511-2.677,1.458-3.836,2.427 c0.449,0.282,0.907,0.564,1.418,0.859c-0.026,0.454-0.022,0.916,0.018,1.387c-0.718,0.286-1.568,0.379-2.074,0.964 c0.009,1.295,1.167,1.995,2.149,2.616c0.018-0.779,0.062-1.55,0.119-2.316c1.343,0.33,2.563,1.022,3.77,1.713 c-0.061,0.603-0.097,1.211-0.088,1.832c-1.449,1.726-1.039,4.571,0.907,5.751c-0.035,0.599-0.04,1.211-0.018,1.832 c-0.947-0.022-1.885-0.048-2.783-0.062c-0.392,1.704,1.383,1.612,2.519,1.854c1.356,0.203,1.559,1.814,2.127,2.832 c1.264-0.229,2.554-0.727,3.88-0.423c0.903,0.167,1.911,0.542,2.761-0.115c1.18-0.462,1.246-1.832,1.502-2.889 c0.731-1.075,1.343-2.233,2.14-3.268c1.017-0.669,1.568,0.559,2.25,1.132c0.868,1.053,2.36,0.744,3.55,1.167 c0.956,0.383,2.51,0.198,2.646-1.066c-0.348-0.559-0.749-1.061-1.101-1.559c-0.048-1.083-0.048-2.162-0.031-3.233 c0.722-0.018,1.471-0.026,2.255-0.026c0.172,0.128,0.515,0.392,0.687,0.52c0.233-0.647,0.498-1.29,0.792-1.925 c1.467,0.449,2.845,1.158,4.29,1.713c1.295,0.295,2.664,0.022,4.016,0.106c0.872,1.577,2.361,2.603,4.003,3.29 c0.04-1.22,0.15-2.435,0.313-3.638c0.788-0.057,1.599-0.101,2.44-0.141c0.084-0.33,0.26-0.991,0.348-1.321 c1.74,0.357,3.506,0.625,5.307,0.55c0.802,1.44,1.392,2.973,1.964,4.527c0.978,0.07,1.55-0.854,2.211-1.44 c1.392-0.079,2.818,0.018,4.197,0.41c-0.643,1.057-1.501,1.955-2.391,2.792c-0.093,0.498-0.154,1.004-0.189,1.519 c-0.757,0.132-1.528,0.264-2.237,0.414c-0.537,0.837-1.105,1.651-1.687,2.444c0.604-0.247,1.242-0.484,1.898-0.722 c2.376,2.775,0.141-0.545,1.356,6.28c-1.105,0.004-2.198,0.009-3.259,0.009c-0.167,0.506-0.317,1.017-0.414,1.541 c-1.814,0.705-3.717,0.542-5.536,0.04c-0.506-0.476-0.986-0.947-1.453-1.405c-1.176,0.211-2.374,0.207-3.532,0.137 c-0.141,0.286-0.418,0.85-0.555,1.132c0.885-0.189,1.814-0.374,2.739-0.555c0.154,0.458,0.375,0.942,0.59,1.427 c-0.564,0.203-1.101,0.414-1.612,0.63c-1.735,0.911-3.673-0.295-5.448,0.445c-0.062,1.29-0.282,2.581-0.965,3.699 c-0.586-0.031-1.14-0.053-1.669-0.066c-0.123,0.194-0.361,0.581-0.485,0.775c0.617,1.788-0.713,3.298-1.233,4.915 c-0.234,0.018-0.7,0.048-0.934,0.062c-0.476-0.269-0.929-0.533-1.356-0.784c0,0.705,0.524,1.537,0.053,2.206 c-0.471,0.943-1.665,0.696-2.493,0.872c-0.26-0.542-0.502-1.075-0.718-1.603c-0.432,0.229-0.841,0.471-1.22,0.718 c-0.418,5.147-1.802,1.32-0.947,5.897c-0.594,0.207-1.136,0.427-1.669,0.652c-0.678-0.436-1.378-0.868-2.026-1.264 c-0.154,0.92-0.295,1.845-0.383,2.783c0.722-0.053,1.471-0.132,2.255-0.093c0.665,0.528,1.185,1.216,1.881,1.762 c0.771-0.145,1.458-0.533,2.215-0.837c-0.471-0.661-0.978-1.255-1.286-1.969c-0.009-0.969,0.216-1.911,0.427-2.845 c1.541,0.44,2.717,1.585,4.144,2.299c0.771,0.141,1.559-0.15,2.365-0.233c1.229,0.766,2.391,1.647,3.558,2.545 c1.52-0.467,3.074-0.859,4.629-1.277c0.797-2.334,1.158-4.976,2.898-6.848c1.396-0.432,2.576-1.312,3.756-2.162 c-0.22-1.999,1.436-3.193,3.012-3.985c0.432,1.286,0.806,2.598,1.114,3.933c-0.868,0.26-1.674,0.533-2.493,0.81 c0.577,0.141,1.185,0.291,1.828,0.449c0.551-0.264,1.15-0.511,1.761-0.744c0.52,2.378,1.163,4.752,1.106,7.218 c-0.709-0.084-1.392-0.163-2.048-0.233c-0.119,1.075-0.203,2.154-0.247,3.241c0.563,0.026,1.158,0.057,1.779,0.101 c0.357-0.449,0.709-0.894,1.114-1.33c0.238-0.005,0.709-0.018,0.947-0.026c0.185-0.189,0.559-0.568,0.744-0.757 c1.511-0.277,3.303-1.11,4.703-0.013c0.049,1.533-0.96,2.783-1.726,4.008c1.836,1.561,1.498,1.37,2.59,2.017 c1.339-0.344,2.722-0.44,4.131-0.458c-0.128,1.396-0.511,2.783-1.489,3.831c-0.172,0.797-0.357,1.59-0.418,2.413 c0.551-0.78,1.066-1.599,1.581-2.418c1.823-1.396,3.849-2.515,5.994-3.365c0.154,0.15,0.454,0.445,0.608,0.594 c0.159,0.709,0.357,1.431,0.581,2.154c-0.467,0.559-0.916,1.141-1.321,1.726c0.255,0.405,0.546,0.823,0.867,1.246 c0.885-0.176,1.775-0.33,2.713-0.449c-0.339,2.065-1.52,3.92-1.489,6.06c2.224-0.722,3.281-3.259,5.747-3.519 c0.894,2.625,0.286,5.738-1.378,7.923c-1.66,0.815-3.422,1.444-4.902,2.568c-0.251,1.079-0.529,2.149-0.74,3.237 c0.427-0.696,0.885-1.383,1.339-2.074c0.833,0.11,1.7,0.247,2.572,0.396c0.013,0.753,0.035,1.51,0.106,2.281 c1.806,0.96,3.585,2.154,5.699,2.321c0.948-6.959,4.975-8.124,7.627-9.777c2.114,0.035,4.153,0.696,6.13,1.436 c1.894,0.269,3.792-0.414,5.655-0.797c0.7-0.423,1.423-0.823,2.189-1.193c0.987,1.814,2.796,0.088,4.232-0.11 c3.36-0.568,6.822,0.344,9.821,1.902c5.82-1.976,2.983-0.3,9.354-2.096c1.313,0.057,2.198,1.198,2.858,2.233 c0.837,1.348,2.149,2.29,3.307,3.365c3.18,0.044,6.434-0.837,9.57,0.066c-0.115,0.691-0.238,1.383-0.308,2.087 c0.744,1.528,1.378,3.118,2.035,4.699c2.29-2.638,5.514-4.078,8.284-6.113c6.375-8.427,3.448-9.071,9.979-10.199 c1.176-0.136,2.629-0.506,3.567,0.524c3.426,3.167,6.073,7.469,10.591,9.239c5.243,3.447,16.175,10.726,19.206,16.145 c0.854,1.559,2.59,2.325,3.651,3.73c0.546,0.89,0.92,1.889,1.4,2.84c3.072,1.462,2.39,3.489,2.14,6.566 c-0.282,1.96,0.247,3.897,0.396,5.848c-0.471,0.392-0.876,0.806-1.281,1.22c-0.919,5.12-0.571,2.64-3.585,5.351 c0.361,1.81,0.96,3.572,1.431,5.368c1.088,0.498,2.193,1.013,3.276,1.594c0.454,2.149-1.515,3.651-1.369,5.73 c1.321-0.026,2.691,0.128,4.025-0.154c0.687-0.396,0.876-1.242,1.334-1.854c1.401,0.088,1.96,1.356,2.506,2.466 c1.859-0.181,3.66-0.956,4.933-2.374c1.528,2.422,0.925,5.487,0.762,8.191c0.418,0.401,0.868,0.815,1.339,1.233 c0.154,1.731,1.158,3.246,2.893,3.734c-0.246,0.766-0.484,1.533-0.674,2.317c1.669-0.194,3.365-0.26,5.06-0.084 c0.595-0.145,1.211-0.277,1.867-0.392c0.616,0.89,1.242,2.167,2.559,2.035c1.423,0.37,1.643-1.378,2.62-1.969 c1.141,0.044,2.272,0.322,3.431,0.506c0.049-0.379,0.154-1.141,0.202-1.519c0.538,0.181,1.101,0.37,1.7,0.568 c1.123-0.493,2.356-0.52,3.545-0.106c1.326-0.863,2.814-1.348,4.43-1.334c0.071,0.524,0.172,1.057,0.3,1.599 c1.81-0.229,3.818-0.612,5.434,0.546c1.823,1.22,4.03,0.242,6.047,0.247c1.753,0.159,3.497,0.528,5.294,0.506 c2.567,0.119,4.501-1.938,6.927-2.475c1.665-0.594,3.202,1.365,4.853,0.546c1.291-0.731,3.039-0.079,4.14-1.193 c10.452-9.011,8.963-4.141,10.006-8.094c-0.537-1.55-0.929-3.149-0.898-4.791c0.872-0.26,1.819-0.405,2.757-0.15 c1.017-0.401,2.013-0.912,2.942-1.537c0.63-0.018,1.268-0.026,1.973-0.018c-0.189-0.661-0.3-1.299-0.432-1.942 c0.476-0.802,0.956-1.607,1.436-2.418c0.674-0.211,1.383-0.418,2.114-0.612c0.11,0.995,0.22,1.991,0.401,2.999 c0.339-0.573,0.669-1.149,1.057-1.713c2.154,0.026,3.955,1.383,6.082,1.634c0.44,1.924,2.193,3.298,4.166,3.378 c1.052-0.956-0.41-2.339-0.432-3.506c1.061-0.7,2.334-0.471,3.554-0.299c-0.454-0.696-0.81-1.379-1.136-2.092 c1.599,0.216,3.171,0.705,4.633,1.44c-0.062,1.933-0.528,3.818-0.986,5.69c3.096-1.731,6.505-2.7,9.988-3.294 c2.656-1.207,5.58,0.115,8.042,1.264c0.171,0.581,0.339,1.163,0.586,1.766c1.061-0.15,2.149-0.33,3.232-0.581 c1.735,0.639,3.171,2.131,5.122,2.153c2.14,0.101,4.113,1.066,6.24,1.383c1.66,0.216,2.656,1.735,3.801,2.819 c0.247-0.176,0.744-0.533,0.991-0.709c0.7,0.031,1.436,0.071,2.206,0.123V1600H0v-292.086c0.471-0.841,1.004-1.634,1.524-2.431 c-0.295-0.053-0.89-0.154-1.185-0.203c0.416-2.251,0.11-4.769,4.523-4.091c-0.009,0.612-0.013,1.238-0.022,1.872 c0.185,0.198,0.559,0.595,0.749,0.793c2.917-2.27,2.23-1.797,6.571-1.898c0.137-0.308,0.41-0.92,0.546-1.224 c0.053-0.533,0.106-1.048,0.163-1.55c1.911-0.035,3.787,0.335,5.549,1.079c-0.132-0.881-0.247-1.761-0.352-2.625 c0.661-0.07,1.326-0.119,1.986-0.154c0.137,0.291,0.405,0.872,0.542,1.163c0.255-1.176,0.52-2.347,0.74-3.519 c0.947-0.176,1.898-0.308,2.849-0.414c0.04,1.51,0.035,3.03,0.022,4.554c0.788-0.009,1.577,0,2.365,0.004 c0.687-1.198,1.845-1.863,3.228-1.841c0.176,0.489,0.352,0.986,0.528,1.497c1.088-0.211,2.171-0.423,3.263-0.612 c0.383,0.418,0.771,0.845,1.163,1.277c0.009-0.423,0.018-1.264,0.022-1.687c0.568-0.225,1.136-0.436,1.709-0.625 c0.335,1.101,0.462,2.268,0.141,3.409c1.326-0.555,2.708-1.194,4.179-1.022c0.55,0.784,0.709,1.748,1.017,2.647 c0.352-0.44,0.705-0.872,1.057-1.295c0.951-0.009,1.907-0.057,2.854,0.062c0.581,0.493,0.427,1.339,0.599,2.03 c0.85-0.189,1.7-0.357,2.554-0.498c0.401,1.696,0.009,3.413-0.079,5.126c-0.167,0.092-0.511,0.277-0.683,0.37 c-0.506,0.824-1.097,1.616-1.44,2.541c1.171,1.537,1.511,3.413,1.7,5.298c0.542-0.013,1.083-0.013,1.629,0 c0.194,0.797,0.401,1.585,0.634,2.396c0.876-1.828,1.748-3.69,3.347-5.007c0.916-0.013,1.828-0.018,2.748-0.005 c-0.141,0.652-0.277,1.312-0.418,1.982c-1.035,0.277-2.409,0.37-2.391,1.81c0.599-0.37,1.176-0.74,1.748-1.132 c0.837-0.018,1.673-0.018,2.515-0.009c-0.066,1.339-0.181,2.788-1.506,3.505c0.348,0.7,0.634,1.453,1.088,2.118 c0.784,0.093,1.572,0.062,2.361,0.097c-0.52-0.37-1.048-0.722-1.572-1.066c0-0.515,0.004-1.013,0.009-1.502 c5.021-0.963,3.5-1.184,6.236-1.405c-0.128,0.744-0.269,1.497-0.423,2.255c0.189,1.044,0.33,2.088,0.454,3.158 c0.837-0.564,1.74-1.009,2.726-1.215c0.912-0.458,1.92-1.541,2.977-0.802c0.11,0.894-0.022,1.801,0.04,2.713 c0.321,0.449,0.731,0.815,1.114,1.233c0.211-0.96,0.41-1.907,0.612-2.849c1.123,0.255,2.228,0.59,3.329,0.951 c0.207,0.956,0.418,1.916,0.595,2.893c-1.603,0.621-1.013,2.189-0.687,3.462c0.079-0.449,0.233-1.348,0.308-1.797 c1.022-0.155,4.753-1.299,6.804,2.929c0.467,0.819-0.559,1.378-0.92,2.021c0.819,0.432,2.299,0.449,2.233,1.696 c-1.004,1.977-3.351,3.439-5.589,2.717c-0.022,0.234-0.062,0.7-0.079,0.929c0.546-0.022,1.092-0.031,1.638-0.031 c0.321,0.669,0.647,1.348,0.978,2.03c1.599,0.167,2.924-0.656,4.329-1.233c0.713,1.431,1.414,2.898,1.894,4.439 c0.097,1.436-0.819,2.973,0.115,4.307c1.436,2.616,4.483,4.338,4.743,7.592c0.612-0.158,1.224-0.313,1.836-0.449 c1.022,1.013,2.061,2.008,3.074,3.039c0.608,0.022,1.215,0.062,1.823,0.119c0.374,0.572,0.775,1.136,1.211,1.691 c0.11,0.898,0.172,1.814,0.172,2.735c-0.841-0.106-1.682-0.203-2.519-0.286c0.145,1.696-0.137,3.523,0.555,5.135 c0.828,1.026,2.338,0.727,3.506,0.907c0.04,0.973,0.079,1.942,0.159,2.933c0.203-0.709,0.405-1.4,0.581-2.092 c0.198-0.009,0.586-0.026,0.779-0.035c0.502,0.665,1.022,1.321,1.555,1.977c0.062,0.916,0.119,1.845,0.176,2.779 c0.841-0.859,1.784-1.599,2.788-2.25c-0.586-1.59,1.044-2.369,1.907-3.395c0.48-0.004,0.964,0.013,1.449,0.044 c0.85,0.969,1.823,1.823,2.832,2.638c0.194-0.225,0.577-0.669,0.771-0.894c0.282-0.009,0.846-0.026,1.127-0.035 c0.352-1.48,0.621-3.012,1.524-4.272c1.224,0.322,1.819,1.286,1.753,2.537l0.374-0.053c-0.022-0.498-0.044-0.982-0.066-1.453 c0.7-0.489,1.383-0.995,2.057-1.51c-0.524-0.639-1.053-1.268-1.607-1.863c-0.194-2.484,0.458-4.906,1.127-7.262 c0.418-0.762,1.079-1.339,1.647-1.969c0.555-0.018,1.11-0.026,1.669-0.009c0.167,1.233,1.035,2.052,1.894,2.871 c0.216,0.771,0.225,1.585,0.313,2.4c0.533-0.013,1.066-0.013,1.599,0c0.458-0.656,0.92-1.317,1.392-1.942 c-0.7-0.136-1.4-0.251-2.101-0.352c-1.07-1.022-1.792-2.325-1.502-3.845c-0.092-0.22-0.277-0.669-0.37-0.89 c-0.317-0.022-0.956-0.062-1.273-0.079c0.031-1.462,0.026-2.92,0.009-4.369c0.493,0.018,0.982,0.053,1.475,0.097 c0.797,0.876,1.753,1.603,2.889,1.982c0.471-1.81,0.506-3.682,0.797-5.509c0.299,0.004,0.907,0.018,1.207,0.026 c0.374,0.308,0.753,0.634,1.127,0.969c-0.009-0.991-0.018-1.964-0.026-2.933c1.022,0.189,2.043,0.423,3.061,0.652 c-0.044,1.704-0.022,3.417,0.189,5.122c1.119-1.304,2.444-2.427,3.99-3.184c0.568,1.251,0.524,2.616,0.26,3.946 c0.167-0.26,0.506-0.78,0.678-1.039c0.238-0.031,0.713-0.093,0.951-0.123c0.546-0.59,1.092-1.171,1.638-1.748 c1.462,0,2.929,0.022,4.395,0.062c0.154-0.898,0.282-1.801,0.41-2.686c1.489,0.128,3.048,0.225,4.351-0.647 c0.132-0.841-0.185-1.872,0.401-2.554c1.616-0.81,4.025,0.489,5.254-1.238c0.238-1.299-0.625-2.677,0.128-3.897 c1.083-1.85,2.81-3.325,3.334-5.483c-1.537-1.048-2.682-2.664-2.77-4.562c1.176-0.04,2.36-0.115,3.51-0.366 c1.189-0.084,2.079,1.004,3.241,1.123c1.378,0.106,2.766,0.079,4.144,0.229c0.075-2.03,0.55-4.096,1.722-5.774 c1.466-0.436,3.008-0.115,4.452,0.264c-0.057-0.753-0.115-1.489-0.163-2.215c0.449-0.321,0.903-0.647,1.356-0.947 c0.031-0.317,0.088-0.951,0.114-1.268c0.771,0.049,1.541,0.119,2.312,0.194c3.055-5.179,0.532-3.062,3.955-4.712 c0.048,0.348,0.15,1.044,0.198,1.392c0.194,0.181,0.586,0.533,0.779,0.713c0.233-0.964,0.471-1.92,0.709-2.867 c-0.41-0.709-0.81-1.409-1.211-2.105c1.211-1.7,2.299-4.043,4.466-4.576c0.242,0.753,0.352,1.537,0.48,2.334 c0.304,0.665,0.612,1.33,0.925,2.012c1.44-0.757,3.444-1.048,4.289-2.554c-0.471-1.634-0.969-3.268-1.066-4.968 c-0.379-0.335-0.753-0.661-1.127-0.973c0.15-0.683,0.225-1.405,0.661-1.96c1.361-0.172,1.986,1.334,2.761,2.18 c1.127-0.229,2.286-0.317,3.395-0.63c0.418-1.321,0.722-2.677,1.277-3.946c0.731-0.339,1.449-0.691,2.162-1.052 c0.344-0.013,1.035-0.035,1.383-0.044c-0.22,1.299-0.661,2.585-0.625,3.924c0.392,0.815,1.339,1.211,2.013,1.797 c1.339-0.669,2.682-1.506,4.232-1.502c-0.04,0.74-0.084,1.493-0.123,2.255c0.643-0.255,1.299-0.445,1.947-0.678 c0.982,0.947,1.96,1.902,2.915,2.885c0.04-0.365,0.119-1.101,0.154-1.466c0.722-0.339,1.444-0.678,2.158-1.017 c-0.414-0.374-0.824-0.74-1.233-1.088c-0.044-0.89-0.084-1.775-0.11-2.642c2.016,0.059,3.022,1.675,5.941,4.615 c1.149-0.868,2.519-1.312,3.964-1.083c0.462-0.665,0.973-1.299,1.308-2.03c-1.13-3.526-2.094-3.866-2.929-5.492 c-0.396-1.977-0.427-4.096,0.357-5.976c1.308,0.026,2.625,0.044,3.937,0.071c0.154,0.269,0.462,0.806,0.617,1.074 c0.132-1.823,0.225-3.646,0.238-5.47c1.127-0.185,2.272-0.335,3.422-0.22c-0.159,1.621-0.432,3.237-0.683,4.857 c1.167-0.123,2.338-0.251,3.514-0.335c0.344-1.889,1.18-3.624,2.14-5.267c0.476,0.022,0.956,0.057,1.44,0.106 c0.04,1.097,0.07,2.202,0.101,3.316c0.564,0.41,1.127,0.828,1.7,1.251c0.053-0.714,0.11-1.383,0.167-2.065 c1.145-1.031,2.176-2.259,3.651-2.832c0.344,0.881,0.691,1.784,1.004,2.691c-0.33,0.969-0.286,1.986,0.026,2.964 c-0.366,1.132-0.771,2.259-1.189,3.382c0.092,0.242,0.277,0.731,0.37,0.973c0.577-0.031,1.158-0.053,1.74-0.062 c0.511-1.568,0.683-3.276,1.515-4.708c1.4-0.846,3.021-1.268,4.602-1.625c0.018,1.167,0.022,2.343,0.044,3.528 c1.616,0.929,2.752,2.435,4.166,3.616c0.678,0.013,1.352-0.106,2.03-0.172c0.013-0.735,0.044-1.44,0.07-2.149 c1.577-1.621,2.343-4.082,4.673-4.849c0.031,0.405,0.097,1.22,0.132,1.625c1.075-0.44,2.158-0.859,3.277-1.185 c1.048-1.947,1.92-4.131,3.836-5.395c0.427-0.621,0.837-1.26,1.387-1.766c0.771-0.172,1.563-0.132,2.352-0.136 c0.722,0.687,1.471,1.356,2.242,2.004c0.238-0.916,0.471-1.814,0.687-2.722c1.414-0.546,2.858-1.035,4.378-1.193 c-0.176,0.802-0.357,1.625-0.564,2.435c0.176,0.48,0.357,0.964,0.542,1.466c0.154-0.198,0.462-0.59,0.617-0.788 c1.779-0.207,3.567-0.326,5.364-0.33c0.962,3.151,0.235,2.239-1.356,9.424c0.41,0.401,0.81,0.828,1.229,1.251 c0.137,0.515,0.251,1.07,0.432,1.599c1.339-0.537,1.075-1.995,1.154-3.158c1.819-1.202,2.898-3.149,4.038-4.941 c0.291-0.062,0.868-0.189,1.158-0.255c0.242,0.691,0.462,1.392,0.696,2.101c0.78,0.793,1.127,2.312,2.405,2.383 c1.801-0.564,2.59-2.471,3.589-3.898c0.295-0.022,0.881-0.066,1.176-0.088c0.062,0.678,0.132,1.365,0.211,2.065 c1.48-1.444,2.184-3.453,3.576-4.959c0.846-0.872,1.286-2.008,1.801-3.074c0.779-1.608,2.422-2.515,3.413-3.955 c0.854-1.387,3.468-7.491,6.161-9.323c3.166-2.233,5.707-5.276,9.173-7.082c1.356-0.639,1.814-2.131,2.497-3.343 c0.618-1.206,5.892-7.69,7.535-8.817c0.432-1.687,0.449-3.55,1.471-5.021c0.995-1.502,2.532-2.541,3.514-4.052 c2.944-4.142,1.301-3.448,5.945-4.99c0.744-1.026,1.621-1.969,2.779-2.523c1.242-0.537,1.581-1.955,2.391-2.915 c1.075-0.744,2.387-1.061,3.497-1.757c2.035-1.145,3.18-3.351,5.205-4.505c2.294-1.229,2.827-4.201,5.161-5.386 c6.434-3.303,5.468-0.513,9.715-2.057c3.021-0.934,6.174-0.291,9.244-0.04c1.709-0.198,3.083-1.436,4.655-2.057 c1.273-0.665,2.638-1.105,3.928-1.718c1.744-0.757,1.202-3.36,2.876-4.162c2.03,0.405,4.289-0.414,6.06,0.938 c0.388-0.89,0.735-1.788,1.097-2.678c0.264-0.04,0.797-0.115,1.061-0.154c5.029-4.53,3.646-1.792,4.175-5.972 c5.146-0.673,4.05-1.78,9.16-0.502c0.022-0.233,0.057-0.705,0.079-0.938c0.277,0,0.837,0.004,1.119,0.009 c0.185-0.207,0.555-0.617,0.74-0.823c0.727-0.031,1.453-0.062,2.193-0.079c-0.476-0.348-0.947-0.687-1.409-1.017 c-0.339,0.048-1.013,0.145-1.348,0.194c-0.009-0.612-0.013-1.216-0.009-1.81c-0.357-0.035-1.066-0.101-1.422-0.136 c-0.423,0.348-0.837,0.709-1.246,1.079c-0.013,0.374-0.035,1.132-0.044,1.51c-2.123-1.37-4.47-2.361-6.403-4.003 c-1.4-0.498-2.955,0.233-4.422,0.035c-0.449,0.158-0.92,0.282-1.361,0.458c-0.291,1.216-0.506,2.449-0.634,3.704 c-0.251,0-0.757,0-1.013,0c-0.189-0.198-0.577-0.599-0.771-0.802c-6.354-0.917-4.417-1.79-7.773-4.483 c-0.282-1.775,2.136-1.251,3.237-1.387c1.37-0.846,3.202-1.427,3.378-3.307c-2.176,0.643-4.294,1.594-6.593,1.695 c-0.018-0.357-0.057-1.07-0.075-1.427c5.787-1.783,4.253-1.466,5.047-3.237c-1.607-0.502-3.021-1.409-4.452-2.255 c-0.057-1.709-0.251-3.4-0.612-5.065c0.264,0.009,0.793,0.031,1.057,0.044c1.031,1.119,1.999,2.294,2.946,3.501 c0.018-0.819,0.048-1.599,0.066-2.396c0.493-0.661,0.982-1.321,1.462-1.986c0.233-0.009,0.705-0.035,0.938-0.044 c0.185,0.898,0.366,1.792,0.581,2.708c-0.26-2.109,1.828-3.215,2.109-5.161c0.255-0.066,0.771-0.194,1.026-0.255 c-0.004-0.511-0.009-1.008-0.009-1.497c0.674-0.286,1.343-0.586,2.026-0.859c-0.506-0.506-1.022-1-1.533-1.475 c-0.035-0.476-0.062-0.943-0.079-1.396c-0.313,0.009-0.934,0.026-1.246,0.035c-0.22-0.863-0.423-1.731-0.603-2.585 c-1.933,0.026-3.77-0.678-5.205-1.955c-1.286,0.009-2.563,0.026-3.845,0.009c-0.009-0.229-0.026-0.691-0.04-0.92 c0.37-0.551,0.744-1.092,1.105-1.634c1.022,0.189,2.039,0.396,3.083,0.484c-0.115-1.009-0.788-1.792-1.242-2.651 c1.22-0.674,1.828-1.924,2.435-3.105c0.52,0.053,1.039,0.123,1.563,0.198c-0.026,1.59-0.154,3.184-0.057,4.787 c0.916-1.229,0.555-2.858,0.647-4.276c0.859,0.458,1.709,0.943,2.567,1.431c-0.018-2.048-0.022-4.091-0.022-6.13 c0.854-0.079,1.731-0.101,2.563-0.33c0.141-1.198,0.128-2.396,0.181-3.585c0.771,0.026,1.555,0.031,2.33,0.163 c0.163,0.665,0.233,1.348,0.344,2.048c1.132-0.009,2.264-0.009,3.4,0.004c-0.035,0.423-0.062,0.859-0.084,1.308 c-0.586,0.423-1.361,0.815-1.123,1.695c0.643-0.313,1.312-0.573,1.96-0.876c-0.225,1.59-0.189,3.224,0.348,4.761 c2.396,0.018,4.725-0.603,7.042-1.145c-0.418,1.378-1.612,2.215-2.616,3.153c0.216,0.515,0.44,1.039,0.661,1.577 c-1.559,0.665-3.188,1.286-3.999,2.911c1.555,0.683,2.528,2.132,3.673,3.321c0.291,0.031,0.872,0.097,1.163,0.128 c0.013,0.608,0.035,1.229,0.07,1.863c0.502,0.802,0.973,1.621,1.449,2.457c0.934-0.088,1.876-0.176,2.814-0.264 c0.304-1.052,0.603-2.101,0.942-3.131c1.312-0.163,2.563-0.586,3.761-1.136c0.273,0.625,0.537,1.268,0.815,1.916 c-0.374,0.322-0.744,0.656-1.11,1c1.458-0.542,2.898-1.154,4.426-1.475c0.167-0.242,0.498-0.722,0.665-0.964 c1.255,0.189,2.506,0.379,3.765,0.59c-0.013,0.515-0.022,1.039-0.031,1.577c-0.947-0.018-1.889-0.035-2.827-0.031 c0.128,0.529,0.26,1.07,0.401,1.616c0.559,0.251,1.123,0.511,1.695,0.788c-0.119,0.912-0.238,1.832-0.366,2.757 c6.308,0.178,4.489-0.585,6.35,0.934c-4.348,0.763-3.356-0.333-5.417,3.193c-0.55,0.269-1.105,0.528-1.643,0.819 c1.365,2.079,3.677,3.012,5.95,3.757c-0.229,0.788-0.467,1.581-0.691,2.382c-0.326,0.33-0.647,0.674-0.96,1.031 c1.709,2.726,3.519,5.558,6.35,7.262c0.546-0.506,1.105-0.991,1.651-1.489c1.18-0.092,2.369-0.128,3.558-0.075 c0.229,0.52,0.458,1.044,0.696,1.585c0.828-0.445,1.669-0.863,2.528-1.242c0.859,1.828,3.021,2.105,4.783,2.475 c0.242,0.405,0.484,0.819,0.735,1.246c0.476,0.092,0.969,0.198,1.462,0.308c0.079,0.916,0.167,1.836,0.255,2.77 c0.63-0.502,1.282-0.964,1.933-1.431c-0.185-0.568-0.366-1.141-0.533-1.691c0.788-0.004,1.585,0.009,2.383,0.026 c-0.053,0.33-0.163,0.982-0.216,1.308l0.599-0.031c0.004-0.295,0.013-0.885,0.018-1.185c0.846,0.026,1.704,0.079,2.559-0.026 c0.74-1.264,0.044-3.131,1.431-3.994c-0.608-0.339-1.211-0.656-1.81-0.978c0.198-0.59,0.405-1.176,0.617-1.748 c0.705,0.004,1.409,0.009,2.127,0.035c0.163-0.559,0.339-1.114,0.471-1.665c-0.92-0.832-2.206-0.823-3.351-1 c-0.11-0.348-0.211-0.687-0.304-1.013c1.916,0.194,3.435-1.097,5.091-1.819c0.176,0.229,0.528,0.691,0.705,0.92 c0.603,0.189,1.211,0.401,1.819,0.625c0.361,0.793,0.797,1.63,1.7,1.929c0.559-1.647,0.956-3.351,1.255-5.06 c-0.705-1.471-2.211-2.515-2.382-4.237c1.999,0.828,3.475,2.466,5.148,3.783c0.238,0.022,0.709,0.075,0.947,0.101 c0.81,0.661,1.66,1.277,2.523,1.889c-0.203,0.766-0.405,1.537-0.59,2.321c0.621,0.427,1.242,0.863,1.872,1.308 c0.167-1.061,0.361-2.105,0.599-3.135c1.009,1.092,2.158,2.123,3.757,2.101c0.238,1.013,0.44,2.026,0.634,3.061 c1.308-0.013,2.713-0.044,3.58-1.18c-2.015-1.161-1.852,0.353-2.462-3.831c0.797,0.066,1.599,0.128,2.405,0.194 c-0.744-0.551-1.537-1.004-2.365-1.387c0.145-0.634,0.304-1.251,0.471-1.863c0.317,0,0.951,0.004,1.273,0.004 c0.137,0.057,0.418,0.181,0.555,0.242c0.793-0.159,1.616-0.15,2.418,0.005c0.899-0.248,2.809-0.491,3.585-0.537 c0.313,0.427,0.608,0.898,0.907,1.37c-0.026-1.092-0.026-2.171-0.018-3.246c-0.727-0.018-1.449-0.026-2.162-0.022 c-0.383-0.841-0.722-1.7-1.039-2.554c0.744-0.035,1.497-0.062,2.25-0.075c-0.203-0.211-0.608-0.63-0.81-0.837 c-1.264,0.326-2.554,0.59-3.862,0.573c0-0.78,0.013-1.537,0.026-2.294c0.735-0.026,1.484-0.048,2.233-0.066 c-0.344-0.26-1.026-0.775-1.365-1.035c0-0.295,0.004-0.885,0.004-1.18c-0.59-0.365-1.176-0.722-1.757-1.07 c0.009-0.304,0.026-0.907,0.035-1.207c1.533,0.167,3.087,0.528,4.62,0.141c-0.859-1.264-1.88-2.396-2.801-3.598 c-0.652-0.035-1.304-0.062-1.947-0.075c0.053-0.665,0.11-1.321,0.176-1.969c-2.096-0.203-5.038-0.207-5.69-2.722 c0.639-0.071,1.286-0.128,1.933-0.172c0.075-0.735,0.075-1.471,0.154-2.184c0.432-0.405,1.07-0.793,0.92-1.48 c-0.141-1.365-0.159-2.876,1.171-3.673c0.084,1.224,0.088,2.457,0.119,3.695c0.506-0.079,1.022-0.136,1.546-0.172 c0.326-1.326,0.674-2.673,0.63-4.038c-0.414-1.207-1.876-1.22-2.902-1.48c-0.555-0.788-1.136-1.55-1.682-2.33 c0.903-0.035,1.819-0.132,2.726,0c1.387,0.757,2.545,1.88,3.853,2.775c-0.11-0.735-0.22-1.462-0.33-2.18 c0.37-0.559,0.744-1.114,1.132-1.651c-0.145-0.286-0.436-0.863-0.577-1.149c-0.022-1.687,0.247-3.369,1.211-4.783 c1.066,1.352,2.378,2.585,2.942,4.272c-0.709-0.22-1.405-0.436-2.101-0.652c0.031,1.409,0.066,2.819,0.07,4.241 c0.652,0.37,1.255,1.343,2.083,0.793c0.079-0.344,0.233-1.035,0.313-1.378c0.81-0.022,1.629-0.031,2.453-0.04 c0.401,0.713,0.753,1.462,1.026,2.25c-0.661,0.401-1.423,0.722-1.872,1.387c0.065,2.21,0.798,3.252,1.339,4.439 c-0.643,0.247-1.277,0.515-1.911,0.784c0.141,1.396,0.335,2.792,0.573,4.188c0.991-0.238,1.982-0.493,2.973-0.749 c0.203,1.193,0.418,2.383,0.608,3.589c0.313,0.031,0.929,0.093,1.242,0.123c0,0.238-0.004,0.718-0.004,0.96 c-1.123,0.361-2.228,0.753-3.329,1.171c0.326,0.277,0.969,0.828,1.295,1.105c-0.308,0.661-0.625,1.321-0.938,1.991 c0.643,0.506,1.299,1.013,1.942,1.55c-0.696,0.198-1.383,0.41-2.061,0.634c1.563,1.193,3.968,0.502,5.21,2.158 c-0.806,0.097-1.599,0.207-2.391,0.335c1.079,0.757,2.374,0.361,3.545,0.071c0.709-1.696,2.598-1.273,3.99-0.837 c0.344-0.308,0.7-0.599,1.057-0.885c0.251-1.365,0.524-2.726,0.749-4.082c1.198-0.713,2.374-1.462,3.545-2.224 c0.361-0.533,0.74-1.052,1.127-1.559c0.581-0.066,1.167-0.128,1.762-0.181c-0.123-1.405-0.167-3.492-1.885-3.862 c-2.365,0.467-3.933,2.616-6.143,3.501c-0.396-0.009-1.185-0.022-1.577-0.026c0.951-2.493,4.184-2.418,5.386-4.712 c-2.594-0.211-5.192-0.247-7.786-0.075c0.022-0.286,0.066-0.854,0.088-1.141c1.378-0.075,2.722-0.44,3.739-1.418 c-1.607-0.075-3.219-0.115-4.805-0.401c0.203-0.445,0.41-0.881,0.621-1.308c0.991-0.198,1.973-0.423,2.964-0.634 c-0.365-0.476-0.705-0.947-1.008-1.44c1.22-0.665,2.44-1.343,3.523-2.228c-0.951-0.824-1.955-1.568-3.017-2.22 c-0.396,1.207-0.824,2.405-1.255,3.602c0.225,0.586,0.44,1.185,0.661,1.792c-1.629,0.374-3.294,0.581-4.963,0.599 c0.172-0.907,0.344-1.814,0.502-2.713c0.26-0.308,0.528-0.608,0.802-0.898c-0.374-2.215-0.159-4.461,0.26-6.646 c-0.115-0.44-0.225-0.872-0.326-1.295c1.22-0.084,2.449-0.128,3.682-0.11c0.154-2.589-1.167-5.245-0.123-7.746 c3.863-9.737,4.105-8.38,7.54-11.344c-0.938-1.004-1.819-2.118-2.004-3.519c0.749-0.405,1.506-0.788,2.277-1.163 c0.057,1.039,0.119,2.079,0.207,3.131c1.515-1.03,2.814-2.36,3.933-3.805c0.806-1.083,0.771-3.003,2.347-3.321 c3.554-1.123,6.769-3.087,9.856-5.148c2.33-1.559,5.205-1.977,7.548-3.505c8.047-4.756,5.086-2.154,7.632-5.884 c0.185,0.269,0.555,0.806,0.74,1.075c2.902-1.207,4.492-4.223,7.39-5.43c1.563-0.691,2.493-2.206,3.743-3.303 c0.964-0.898,2.383-1.039,3.369-1.907c4.96-4.983-6.362,1.109,29.321-18.567c1.11-0.616,2.391-0.665,3.616-0.911 c1.854-0.41,3.387-1.854,5.351-1.854c5.215-0.582-0.353,0.226,8.649-3.942c1.105-0.634,2.087,0.524,3.008,1 c1.418-0.661,2.678-1.7,4.219-2.061c1.245-0.122,17.267,4.214,21.72,0.163c2.801-0.529,5.311-2.127,8.213-2.246 c4.946-0.263,23.25-0.142,27.894,1.955c1.704,0.718,3.008,2.127,4.721,2.849c1.409,0.595,2.819,1.207,4.175,1.938 c1.678,0.986,3.686,0.365,5.509,0.771c6.084,2.171,8.672,5.959,10.512,5.1c0.74-1.475,1.308-3.29,0.238-4.747 c1.026-1.854,2.356-3.558,4.047-4.844c4.233,0.533,4.247,3.365,4.351,5.69c1.185,1.273,2.277,2.66,2.902,4.307 c0.586,1.603,2.656,1.189,3.999,1.484c2.184,0.009,3.558,2.202,5.738,2.246c1.352,0.167,2.911,0.013,3.968,1.075 c1.194,1.067,6.496,5.125,8.055,4.915c0.687-0.74,1.26-1.572,1.876-2.365c0.548-2.098,0.431-3.355,5.906-4.325 c0.766-0.973,1.348-2.07,1.885-3.175c1.863-0.85,2.669-2.805,3.55-4.51c2.915-0.59,5.426-2.444,6.892-5.021 c2.369-1.603,4.717-3.396,7.443-4.391c3.675-1.442,7.499-6.423,9.284-7.359c8.638-4.387,15.622-1.232,18.928-1.361 c0.255,0.841,0.489,1.695,0.749,2.554c1.726-0.55,3.488,0.154,5.245-0.101c15.317-1.91,13.833-1.931,16.66-4.118 c0.639-0.599,1.585-0.361,2.391-0.498c2.272-0.101,4.347-1.141,6.575-1.519c2.074-0.537,4.276-0.396,6.315-1.11 c1.625-0.564,3.034-1.695,4.783-1.924c2.017-0.348,3.902-1.405,5.223-2.977c1.193-0.374,2.44-0.498,3.695-0.603 c-0.203-0.568-0.392-1.127-0.577-1.678c2.272-0.586,4.135-2.079,6.306-2.915c0.128-0.207,0.379-0.617,0.506-0.824 c0.515-0.229,1.035-0.458,1.572-0.665c0.009-0.321,0.022-0.964,0.031-1.286c6.555-2.842,17.919-10.97,20.108-13.326 c1.471-1.616,3.73-2.035,5.382-3.404c5.115-4.181,13.723-6.754,14.581-7.399c2.559-1.7,4.659-3.994,7.284-5.606 c2.136-1.656,3.695-4.113,6.381-4.994c2.761-1.405,5.544,0.735,8.337,0.815c2.114-0.009,4.373,0.299,6.324-0.731 c2.171-1.127,4.875-0.299,6.919-1.762c1.533-0.788,2.233-2.554,3.801-3.285c1.55-0.749,2.774-1.991,4.254-2.854 c1.533-0.947,3.4-0.506,5.104-0.652c5.216,0.028-1.083-3.04,15.088,2.642c1.079,0.454,1.854,1.387,2.717,2.162 c0.242,0.048,0.722,0.145,0.965,0.194c0.361,0.352,0.735,0.713,1.123,1.083c2.234,0.324,11.351,4.292,12.886,6.483 c1.013,1.233,0.625,2.924,0.727,4.4c0.603,0.793,1.202,1.59,1.85,2.369c-0.388,1.383-1.304,2.594-1.427,4.047 c-0.15,2.484-1.647,5.078-0.203,7.456c8.765-1.551,15.883-7.06,22.825-0.189c0.599,0.595,1.409,0.912,2.162,1.299 c1.303,2.977,5.64,6.391,8.931,7.134c1.167,1.643,2.999,2.475,4.761,3.334c0.255-0.026,0.766-0.075,1.022-0.101 c1.031,1.277,1.273,3.602,3.202,3.792c2.017,0.559,3.893-0.617,5.857-0.868c-0.577,2.162-1.515,4.338-1.044,6.628 c0.207,0.181,0.625,0.546,0.832,0.727c0.026,0.3,0.084,0.898,0.11,1.202c0.238,0.269,0.489,0.546,0.753,0.837 c0,0.317,0,0.956,0,1.273c0.418,0.33,0.854,0.669,1.295,1.017c0.031,0.282,0.088,0.841,0.119,1.123 c1.009,0.335,1.995,0.793,3.061,0.978c1.837-0.572,3.1-2.109,4.496-3.338c-0.066-0.145-0.198-0.427-0.264-0.568 c0.815-0.705,1.625-1.414,2.272-2.281c0.119-0.938,0.564-1.691,1.537-1.916c0.52,1.119,1.123,2.202,1.735,3.285 c3.945,0.955,3.477,0.713,6.839-1.497c1.216-0.846,2.907-0.344,4.109-1.198c1.961-2.362,2.392-6.502,5.245-6.086 c2.656,0.299,5.223-0.718,7.887-0.476c0.982-2.228,3.29-3.25,5.518-3.805c2.827-0.665,5.408-2.4,8.398-2.25 c1.731,3.074,3.695,6.192,6.861,7.971c1.876-2.748,4.615-4.946,5.492-8.288c0.48-3.127,3.162-5.073,4.725-7.632 c1.387-2.14,0.674-5.787,3.453-6.866c1.88,0.454,3.712,1.167,5.685,1.238c2.413,0.55,5.029-0.216,7.324,0.885 c2.259,1.136,4.871,0.48,7.258,1.127c1.991,0.335,3.66,1.546,5.5,2.29c3.673,0.379,7.315-0.506,10.909-1.193 c2.158-0.33,4.294,0.317,6.425,0.634c0.198,1.202,0.357,2.413,0.489,3.638c0.577-0.026,1.167-0.049,1.775-0.062 c-0.009-0.885-0.004-1.762,0.018-2.634c0.291-0.009,0.868-0.031,1.158-0.04c0.392,1.66,0.63,3.351,0.925,5.038 c1.044-0.581,1.973-1.352,2.682-2.321c0.225-0.009,0.674-0.022,0.903-0.031c-0.185,0.705-0.361,1.409-0.511,2.127 c0.365,0.026,1.105,0.075,1.471,0.097c0.211-0.656,0.405-1.321,0.634-1.964c1.066-0.159,2.29-0.599,3.29,0.057 c2.013,1.202,3.633,3.008,5.796,3.986c1.475,0.647,2.986,1.255,4.347,2.158c-0.031,0.815-0.044,1.638-0.04,2.471 c3.224,0.814,2.695-1.385,7.451,7.324c0.731,1.238,0.912,2.774,1.929,3.858c5.682,6.855,5.399,9.484,8.143,11.97 c1.983,9.498,5.066,10.724,6.064,14.511c7.356,5.296,4.121,3.003,7.769,8.398c1.352,2.07,0.802,4.681,0.088,6.883 c-0.682,1.804-1.829,10.822-0.59,13.828c9.772,2.119,6.697-0.597,12.146,2.457c5.75,2.309,5.946,3.797,11.882,4.584 c0.757-0.687,1.251-1.599,1.775-2.466c6.48-3.004,20.561,0.454,27.529,1.942c2.546,0.493,4.413,2.453,6.337,4.052 c0.586,0.022,1.189,0.066,1.806,0.11c0.194,0.189,0.586,0.564,0.779,0.753c7.196,1.509,2.263-0.879,9.35,2.026 c0.44,0.259,3.007,1.671,5.738,2.576c0.194,0.15,0.577,0.445,0.766,0.595c2.502,0.823,4.972,1.744,7.5,2.519 c1.792,0.956,3.545,2.07,5.584,2.475c-0.018-0.735-0.018-1.458,0-2.171c0.475-0.035,0.969-0.057,1.48-0.066 c0.203,0.788,0.559,1.559,1.238,2.087c0.189-0.26,0.568-0.775,0.757-1.035c0.837-0.225,1.678-0.462,2.528-0.718 c-0.484-1.088-1.546-1.515-2.585-1.832c0.189-0.714,0.396-1.422,0.621-2.123c1.039,0.106,2.092,0.233,3.149,0.41 c0.815-0.432,1.616-1.273,2.629-1.009c1.55,0.37,3.277,0.154,4.659,1.11c0.845-3.18,0.943-6.5,1.854-9.662 c1.33-5.047,2.867-10.081,3.237-15.317c0.454-1.691-1.365-3.413,0.145-4.88c-0.555-2.087-2.642-2.92-4.245-4.038 c-0.004-2.453-0.097-4.906-0.603-7.306c-0.392-0.41-0.766-0.81-1.119-1.207c-0.176-0.484-0.339-0.96-0.489-1.427 c0.053-3.043-0.925-6.174,0.269-9.116c1.066-2.51,0.048-5.311,0.881-7.865c2.688-9.213,3.094-4.683,4.254-12.965 c0.947-7.435,5.428-11.345,6.676-14.489c1.083-2.568,1.462-5.69,3.915-7.416c0.669-1.863,2.431-2.889,3.818-4.162 c2.788-2.717,4.664-6.165,6.227-9.693c5.066-2.42,19.015-6.208,25.49-6.328c2.519-1.422,5.558-1.374,8.081-2.77 c1.331-0.616,1.299-0.589,2.669-0.691c0.189-0.198,0.564-0.59,0.753-0.784c0.247-0.026,0.744-0.07,0.995-0.097 c0.194-0.172,0.581-0.515,0.775-0.687c2.484-0.89,5.157-1.026,7.619-2.008c3.305-2.239,8.096-8.787,9.794-10.12 c1.484-1.105,2.224-2.845,2.871-4.523c0.714-0.951,1.484-1.867,2.405-2.634c0.044-0.225,0.128-0.674,0.172-0.898 c4.119-5.181,2.825-5.719,9.918-11.393c1.237-0.956,1.656-2.629,2.959-3.523c1.913-1.275,12.813-11.164,13.238-11.604 c0.216-0.053,0.647-0.159,0.868-0.216c1.431-1.55,2.889-3.087,4.492-4.474c0.304-0.85,0.7-1.669,0.916-2.545 c-0.053-1.436-0.37-2.849-0.418-4.276c-0.559-0.357-1.088-0.727-1.616-1.066c-0.089-0.529-1.87-6.004,2.515-10.314 c0.013-0.229,0.035-0.691,0.048-0.92c-0.321-0.066-0.956-0.194-1.277-0.26c-0.229-2.4,0.696-5.126-0.898-7.205 c-0.207-1.599,0.44-3.012,1.295-4.307c-0.405-0.352-0.806-0.683-1.202-0.995c-0.564-1.515-0.96-3.092-1.035-4.703 c0.181-0.211,0.546-0.625,0.727-0.832c0.321-0.669,0.687-1.317,1.074-1.951c1.334-0.423,2.695-0.806,3.977-1.409 c1.462-0.819,1.502-2.788,2.634-3.893c1.334-0.797,2.858-1.246,4.175-2.101c1.312-0.929,2.986-0.608,4.505-0.687 c6.844-6.867,6.439-0.445,16-3.809c0.841-0.264,1.726-1.013,2.66-0.586c4.156,1.078,5.493-0.911,10.089-0.832 c0.661-0.154,1.682,0.225,2.109-0.515c0.101-0.854,0.088-1.713,0.128-2.563c3.109-1.075,6.315,0.114,9.49-0.013 c0.295-0.449,0.639-0.885,0.969-1.321c2.73-0.062,5.571,0.392,8.209-0.559c1.902-0.656,3.977-0.964,5.919-0.207 c1.933,0.731,3.875-0.216,5.725-0.766c1.77-0.599,3.695-0.669,5.404-1.484c1.312-0.744,2.832-0.269,4.263-0.286 c1.542-22.817-2.726-212.022-1.678-217.796c0.864-4.736,1.149-25.904-0.995-31.977c-0.722-0.235-41.053-11.012-49.245-11.957 c-1.81-0.22-3.66-0.009-5.404-0.546c-0.528-0.731-0.973-1.612-1.876-1.903c-5.19-1.97-47.302-12.042-47.743-12.115 c-4.906-0.075-8.526-3.919-13.102-5.113c-2.219-1.301-8.275-1.865-6.095-13.846c0.669-4.426,2.572-8.517,3.796-12.798 c0.757-2.841,2.475-5.302,4.474-7.412c4.413-4.622,3.711-6.086,9.389-4.369c2.889,2.065,6.306,3.369,9.799,3.999 c2.242,0.462,4.272,1.577,6.465,2.228c1.66,1.308,3.633,2.131,5.655,2.735c7.42,2.083,12.328,5.541,26.745,8.006 c2.537,0.476,4.523-1.748,7.007-1.709c4.884-0.374,10.261-0.15,14.379,2.841c2.589,1.81,5.685,2.607,8.592,3.761 c2.196,0.842,23.387,7.925,29.771,8.927C1509.654,559.967,1508.686,487.773,1508.819,454.866 M1755.43,956.336 c-0.427,0.859-1.07,1.541-2.079,1.568c0.075,1.537,1.85,1.828,2.308,3.162c0.634-0.101,1.466,0.04,1.854-0.656 c0.603-1.194,0.07-2.545,0.079-3.792C1756.848,956.516,1756.13,956.42,1755.43,956.336 M1769.011,958.723 c0.476,1,1.555,0.093,2.339,0.004c-0.33-0.705-0.669-1.414-0.973-2.101C1769.87,957.287,1769.161,957.869,1769.011,958.723 M1761.736,958.842c-0.854,0.797-1.88,1.356-2.911,1.858c0.255,1.127,0.594,2.242,0.991,3.343c1.634-0.163,3.708,0.683,4.822-0.995 c0.436-0.987-0.735-1.449-1.26-2.052c-0.022-0.33-0.062-0.991-0.079-1.321C1762.754,959.392,1762.238,959.115,1761.736,958.842 M1753.078,964.43c-0.52,0.018-1.013,0.04-1.484,0.075c-0.278,0.617-0.52,1.246-0.775,1.867c1.013,1.326,2.722,1.238,4.193,1.656 c-0.062-1-0.163-2.052,0.643-2.81c-0.524-0.432-1.039-0.841-1.532-1.246c0.194-0.81,1.026-1.907-0.026-2.457 C1753.435,962.352,1753.281,963.422,1753.078,964.43 M1744.94,964.47c0.524,0.744,1.022,1.511,1.493,2.316 c0.414-0.211,1.577,0.198,1.497-0.529c-0.612-0.942-1.321-1.806-1.995-2.678C1745.539,963.827,1745.208,964.122,1744.94,964.47 M1767.836,964.109c-0.696-0.013-0.841,1.18-0.093,1.22C1768.391,965.324,1768.54,964.131,1767.836,964.109 M1740.518,966.342 C1740.782,966.531,1740.782,966.531,1740.518,966.342 M1784.544,966.302l-0.22,0.229l0.211,0.33l0.423-0.022l0.167-0.357 C1784.98,966.434,1784.689,966.346,1784.544,966.302 M1755.765,967.949c0.018,0.326,0.057,0.973,0.075,1.299 c-0.555,0.04-1.07,0.15-1.546,0.33c-0.344,0.559-0.216,1.255-0.282,1.889c0.233,0.154,0.7,0.462,0.934,0.617 c0.423-0.22,0.872-0.427,1.339-0.63c-0.044,0.749-0.053,1.511-0.053,2.272c1.401,0.462,2.929,0.947,4.413,0.445 c0.722-0.141,1.704-0.775,1.973,0.357c1.114,0.189,2.224,0.546,3.382,0.564c1.718-0.489,3.215-1.603,5.025-1.876 c-0.26,0.824-1.035,1.193-1.678,1.629c0.841,0.859,1.854,1.572,3.158,1.365c-0.291-0.255-0.872-0.762-1.163-1.013 c-0.026-0.207-0.084-0.617-0.115-0.824c0.683-0.013,1.246-0.26,1.687-0.744c-1.092-0.903-2.444-1.563-3.871-1.268 c-1.215,0.216-1.687-1.202-2.435-1.854c-1.493,0.092-2.968,0.084-4.439,0.159c-0.189,0.211-0.577,0.634-0.771,0.846 c-1.603-0.335-3.219-0.37-4.778,0.132c0.075-1.004,0.282-2.008,1.154-2.647C1757.081,968.658,1756.403,968.306,1755.765,967.949 M1786.799,968.094c-0.154,0.128-0.467,0.383-0.621,0.511c-0.784-0.07-1.59-0.128-2.334-0.159c0.308,0.617,0.7,1.207,1.004,1.854 c-0.031,0.696-0.269,1.37-0.414,2.048c-0.898,0.026-1.753,0.207-2.44,0.779c-0.687,0.176-1.405,0.317-1.96,0.727 c0.806,0.203,1.629,0.339,2.497,0.476c-0.04-0.247-0.119-0.74-0.159-0.986c0.964-0.009,1.942-0.009,2.942,0 c-0.018,0.511-0.009,1.03,0.022,1.559c-0.357,0.035-1.074,0.11-1.436,0.145c0.229,0.524,0.484,1.048,0.758,1.581 c1.145-0.766,1.268-2.255,2.021-3.325c0.806-0.929-0.022-2.07,0.004-3.118c0.837-0.775,2.286,0.031,3.061-0.934 C1789.199,968.046,1787.856,968.231,1786.799,968.094 M1791.106,970.429c-0.599,0.705,0.718,1.145,1.141,0.586 C1792.815,970.296,1791.467,969.852,1791.106,970.429 M1748.709,971.622c0.185,1.026,0.476,2.035,0.691,3.074 c2.616-0.186,3.817-0.891,4.364-1.145c-0.401-0.678-0.815-1.348-1.167-2.026C1751.4,971.041,1749.317,969.777,1748.709,971.622 M1811.567,970.719c-1.198,0.74,0.22,1.176,0.78,0.388C1813.007,970.543,1811.848,970.226,1811.567,970.719 M1804.146,975.471 c1.352,0.066,2.717,0.101,4.091-0.079c-1.312-0.828-3.435,0.123-3.911-1.832C1804.014,974.159,1804.031,974.815,1804.146,975.471 M1841.725,983.081c0.564-0.189,1.158-0.37,1.762-0.586c-0.022,1.22-0.022,2.449,0,3.677c1.123-0.299,2.312-0.647,3.426-0.026 c0.242-1.484,0.559-2.955,0.951-4.408c-0.198-0.471-0.374-0.934-0.524-1.392c-1.004-0.035-1.995-0.053-2.964-0.048 c-0.172-0.489-0.321-0.973-0.445-1.449C1841.993,979.241,1841.196,981.311,1841.725,983.081 M1791.538,979.479 c-0.264,0.784-0.52,1.563-0.714,2.369c0.374-0.048,1.119-0.141,1.489-0.185c0.427-0.757,0.586-1.621,0.872-2.431 C1792.771,979.294,1791.947,979.417,1791.538,979.479 M1836.471,985.666c-0.229,0.643-0.031,0.854,0.59,0.639 C1837.246,985.653,1837.048,985.437,1836.471,985.666 M1856.214,987.683c0.132,0.251,0.392,0.749,0.524,1 c0.304,0.048,0.912,0.145,1.215,0.198c0.251,1.171-0.313,1.933-1.449,2.22c0.493,0.621,0.969,1.251,1.484,1.894 c0.401-0.599,0.841-1.189,1.281-1.775c0.198-0.854,0.418-1.7,0.652-2.537c-0.577-0.92-1.132-1.85-1.669-2.77 C1857.359,986.243,1856.694,986.886,1856.214,987.683 M1840.544,987.392c0.423,0.995,0.872,1.999,1.51,2.902 c0.247-0.172,0.736-0.511,0.982-0.683c0.533-0.004,1.097,0,1.682,0.013c0.361-0.449,0.753-0.89,1.158-1.33 c-0.885-0.432-1.775-0.819-2.682-1.114c-0.357-0.282-0.692-0.555-1-0.823C1841.628,986.701,1841.077,987.049,1840.544,987.392 M1827.672,987.63C1826.985,988.943,1829.125,987.67,1827.672,987.63 M1850.343,990.973c-0.528,0.374-0.035,1.528,0.603,1.053 C1851.391,991.629,1850.947,990.44,1850.343,990.973 M1868.919,997.16c0.969,0.026,1.951,0.062,2.955,0.075 c-0.159-1.339-1.687-1.563-2.585-2.228C1868.161,995.438,1868.298,996.328,1868.919,997.16 M1813.108,995.742 C1813.271,996.02,1813.271,996.02,1813.108,995.742 M1855.597,1000.164c0.643,0.018,1.308,0.035,1.999,0.053 c0-0.37,0.009-1.114,0.009-1.489C1856.623,998.706,1855.857,999.226,1855.597,1000.164 M2197.605,1011.336 C2196.875,1012.645,2199.054,1011.425,2197.605,1011.336 M2198.024,1016.546c-0.749,0.379-1.55,0.647-2.127,1.255 c0.797,0,1.656,0,2.51,0.004c0.74-1.053,1.594-2.048,2.105-3.25C2199.178,1014.503,2198.671,1015.661,2198.024,1016.546 M2079.048,1017.515c-0.383,0.493,0.044,1.251,0.608,1.44C2080.523,1018.801,2079.765,1017.189,2079.048,1017.515 C2079.039,1016.027,2077.63,1018.017,2079.048,1017.515 M2239.527,1017.467C2239.698,1017.718,2239.698,1017.718,2239.527,1017.467 M2076.049,1018.281C2075.295,1019.559,2077.493,1018.392,2076.049,1018.281 M2239.055,1018.308 c-0.625,0.317-0.647,0.621-0.066,0.903C2239.553,1018.885,2239.575,1018.581,2239.055,1018.308 M2239.654,1019.744 c0.92,0.638,1.872,1.251,2.876,1.806c-0.053-1.039,0.013-2.092,0.524-3.025C2241.896,1018.951,2240.795,1019.374,2239.654,1019.744 M2255.751,1020.105C2255.98,1020.347,2255.98,1020.347,2255.751,1020.105 M2231.318,1023.152c0.247,1.524,1.308,2.757,1.524,4.307 c0.881-0.101,1.739-0.154,2.664-0.295c0.907-1.365,0.85-3.021,0.841-4.584c-0.37-0.255-0.713-0.506-1.022-0.744 C2233.92,1022.113,2232.498,1022.324,2231.318,1023.152 M2251.787,1022.782c-0.247,0.713,0.004,0.951,0.744,0.7 C2252.721,1022.751,2252.474,1022.518,2251.787,1022.782 M2225.764,1026.226c-0.603,1.326-2.074,0.559-3.109,0.432 c-1.696-0.401-2.845,1.211-3.739,2.365c0.273,0.264,0.815,0.802,1.088,1.07c0.621-0.674,1.334-1.339,2.343-1.339 c0.383,1.207,1.163,2.224,1.902,3.255c1.141-0.564,2.33-1.061,3.435-1.726c0.44-0.837,0.7-1.757,1.092-2.62 c0.027-1.136,0.044-2.264,0.084-3.387C2227.447,1024.196,2226.363,1025.02,2225.764,1026.226 M1924.571,1027.177 C1923.858,1028.494,1926.011,1027.261,1924.571,1027.177 M2229.992,1027.953c0.692,0.727,1.339,1.603,0.652,2.607 c0.44,0.159,0.907,0.33,1.396,0.515c-0.018-1.119-0.229-2.206-0.625-3.233C2231.058,1027.873,2230.349,1027.926,2229.992,1027.953 M2205.938,1030.56c-0.912-0.009-1.792-0.004-2.651,0c-0.379,0.947-0.524,1.955-0.524,2.973c2.746,1.441,1.913,0.219,2.643-0.929 c0.339-1.189,1.731-1.475,2.664-2.109c-0.449-0.37-0.938-0.753-1.317-1.105C2206.449,1029.771,2206.18,1030.159,2205.938,1030.56 M2210.412,1030.736c0.551-0.101,0.665-0.427,0.339-0.973C2210.139,1029.842,2210.025,1030.168,2210.412,1030.736 M2213.464,1029.829c-0.062,0.678-0.083,1.365-0.079,2.061c-0.665-0.013-1.303-0.018-1.916-0.018 c0.128,0.484,0.282,0.978,0.467,1.475c0.365-0.04,1.097-0.119,1.462-0.159c0.004,0.304,0.004,0.916,0.004,1.22 c0.22,0.189,0.66,0.564,0.881,0.753C2213.802,1032.07,2215.007,1030.061,2213.464,1029.829 M2235.083,1031.881 c-0.361,0.458-0.678,0.934-0.942,1.436c0.802,0.07,1.766,0.379,2.59-0.048C2237.267,1032.114,2235.893,1031.894,2235.083,1031.881 M2228.922,1033.475C2229.12,1033.713,2229.12,1033.713,2228.922,1033.475 M2205.713,1034.62c0.004,0.357,0.018,1.066,0.022,1.418 c0.203,0.062,0.608,0.181,0.811,0.238c0.313-0.141,0.942-0.423,1.255-0.564c-0.026-0.304-0.079-0.912-0.105-1.216 c-0.203-0.145-0.608-0.436-0.81-0.577C2206.594,1034.096,2206.008,1034.444,2205.713,1034.62 M2200.367,1037.434 c-1.233-0.132-2.449-0.225-3.651-0.269c-0.511,1.185-0.815,2.453-0.638,3.757c0.766-0.216,1.361-0.758,1.889-1.361 c0.722,0.062,1.471,0.128,2.25,0.198c-0.053,0.599-0.079,1.207-0.075,1.823c-0.819,0.079-1.59,0.176-2.361,0.273 c-0.141,0.735-0.26,1.48-0.335,2.233c0.361,0.154,0.753,0.322,1.176,0.498c0.92-0.872,2.207-0.762,3.4-0.837 c0.11-0.964,0.55-1.991,0.052-2.907c-0.04-0.224-0.114-0.674-0.15-0.898c1.083-0.414,2.158-0.863,3.294-1.22 c-0.951-1.687-2.224-3.149-3.77-4.294C2201.076,1035.43,2200.75,1036.443,2200.367,1037.434 M2191.828,1039.125 C2191.22,1040.46,2193.281,1039.072,2191.828,1039.125 M2202.292,1043.877c0.202,0.581,0.41,1.167,0.665,1.77 c0.828-0.062,1.66-0.308,2.361-0.832c1.185,0.093,3.391,0.718,3.743-0.929c-0.815-0.564-1.651-1.431-2.647-1.444 C2205.088,1043.093,2203.806,1043.873,2202.292,1043.877 M2250.246,1045.093c0.15,0.863,0.744,1.572,1.176,2.343 c0.81-0.207,1.638-0.449,2.47-0.727c-0.48-0.559-0.815-1.07-1.229-1.607c-0.053-0.661-0.079-1.317-0.075-1.96 C2251.783,1043.776,2250.977,1044.401,2250.246,1045.093 M2254.099,1047.246c0.357,0.348,1.378-0.022,1.119-0.608 C2254.804,1046.299,2253.826,1046.687,2254.099,1047.246 M2187.869,1047.154c-0.15,0.282-0.445,0.841-0.595,1.123 c0.555,0.304,1.132,0.603,1.735,0.907c0.595-0.52,1.185-1.035,1.81-1.55C2189.837,1047.365,2188.837,1047.237,2187.869,1047.154 M2237.717,1048.743C2237.959,1048.977,2237.959,1048.977,2237.717,1048.743 M2219.409,1049.919 c-0.431,0.401-0.797,0.815-1.176,1.224c0.683,0.326,1.396,0.674,2.105,1.044c0.084,0.837,0.238,1.687,0.454,2.524 c0.344-0.366,0.709-0.731,1.105-1.083C2221.44,1052.134,2220.827,1050.699,2219.409,1049.919 M2250.378,1052.192 c-0.013,0.727-0.004,1.462,0.044,2.206c0.616,0.502,1.202,1.013,1.858,1.528c-0.26,0.661-0.537,1.308-0.766,1.973 c-0.643-0.185-1.268-0.374-1.859-0.555c-0.246-0.771-0.511-1.546-0.713-2.299c-0.995,0.414-1.925,0.991-2.774,1.616 c1.127,0.436,2.567,0.564,2.647,2.114c0.485,0.013,1,0.04,1.542,0.07c-0.013,0.581-0.005,1.167,0.035,1.766 c0.44-0.48,0.929-0.929,1.453-1.352c0.969-0.101,2.229-0.154,2.387-1.414c0.286,0.079,0.859,0.233,1.145,0.313 c1.176-1.348,0.088-3.092-0.365-4.51c-0.995-0.639-2.281,0.291-3.356,0.299c0.431-1.198,1.251-2.242,1.396-3.532 C2251.985,1050.765,2251.162,1051.456,2250.378,1052.192 M2259.445,1053.328c-0.533,0.084-1.035,0.176-1.506,0.277 c-0.057,0.52-0.083,1.044-0.083,1.581c0.542,0.062,1.114,0.132,1.713,0.216c-0.41,1.039-0.616,2.162-0.048,3.21 c-0.022,0.471-0.013,0.951,0.031,1.44c1.193-0.141,2.409-0.159,3.62-0.414c0.286-0.766-0.322-1.48-0.414-2.211 c0.075-0.912,0.423-1.762,0.599-2.651c-0.665-1.044-1.392-2.061-1.718-3.259C2260.793,1051.985,2260.044,1052.588,2259.445,1053.328 M2218.951,1055.649c0.071,0.634,0.101,1.264,0.233,1.92c0.238-0.123,0.713-0.374,0.951-0.498c-0.018-0.357-0.053-1.066-0.075-1.422 C2219.784,1055.649,2219.229,1055.649,2218.951,1055.649 M2243.75,1056.49c-0.326,1.057-0.568,2.14-0.845,3.211 c0.273-0.009,0.823-0.035,1.096-0.044c0.498-0.991,1.308-1.753,2.237-2.365C2245.41,1056.957,2244.556,1056.75,2243.75,1056.49 M2267.628,1073.793c0.753-0.823,1.074-1.806,0.405-2.801C2267.535,1071.851,2267.535,1072.833,2267.628,1073.793 M2241.125,1074.863c-0.242,0.964-0.515,1.92-0.683,2.907c0.766-0.537,2.391-0.63,2.215-1.911 C2242.698,1075.07,2241.548,1075.207,2241.125,1074.863 M2282.201,1077.351c-0.282,0.713-0.053,0.969,0.687,0.771 C2283.116,1077.387,2282.887,1077.131,2282.201,1077.351 M2275.943,1080.465c1.33-0.141,2.717-0.344,4.078-0.079 c0.537,0.973,1.744,0.991,2.708,1.326c-0.097-0.7-0.405-1.233-1.035-1.515c-0.026-0.542-0.018-1.07,0.022-1.59 c-0.687-0.044-1.326-0.075-1.942-0.11C2278.272,1077.682,2276.136,1078.725,2275.943,1080.465 M2279.563,1083.874 c-0.705,1.599,2.493,2.087,2.74,0.555C2281.359,1084.213,2280.483,1083.962,2279.563,1083.874 M2276.251,1091.814 c-0.753,1.185-1.519,2.36-2.202,3.585c0.176,0.78,1.202,0.92,1.81,1.387c0.357-0.524,0.736-1.039,1.145-1.55 c1.136,0,2.497,0.048,3.052,1.282c-0.854,0.881-1.744,1.766-2.202,2.92c1.193-0.123,2.052-1.039,2.92-1.797 c1.311-0.9-0.316-2.787,1.039-5.681c-0.409-0.357-0.934-0.868-1.475-0.533C2278.986,1091.721,2277.612,1091.955,2276.251,1091.814 M2271.71,1099.005C2271.794,1099.111,2271.794,1099.111,2271.71,1099.005 M1290.838,1120.179 C1291.085,1120.4,1291.085,1120.4,1290.838,1120.179 M513.26,1145.599c1.163-0.062,2.316-0.291,3.439-0.616 C515.677,1143.714,513.894,1144.26,513.26,1145.599 M405.355,1149.584c0.687,0.344,1.387,0.643,2.096,0.969 c0.414-0.392,0.819-0.784,1.22-1.18C407.561,1149.391,406.456,1149.457,405.355,1149.584 M519.641,1152.403 c1.29-0.423,1.083-1.7,0.929-2.77C519.425,1150.144,519.676,1151.377,519.641,1152.403 M501.158,1150.39 C501.373,1150.624,501.373,1150.624,501.158,1150.39 M497.427,1150.782c0.009,0.383,0.022,1.145,0.026,1.524 c0.573,0.079,1.145,0.167,1.726,0.264c-0.018-0.599-0.031-1.185-0.044-1.766C498.709,1150.8,497.855,1150.787,497.427,1150.782 M405.751,1151.742c-0.233,0.722,0.009,0.964,0.727,0.731C406.698,1151.738,406.456,1151.496,405.751,1151.742 M519.319,1152.658 C519.566,1152.905,519.566,1152.905,519.319,1152.658 M407.913,1153.574C407.209,1154.865,409.389,1153.658,407.913,1153.574 M495.965,1154.772C495.265,1156.071,497.419,1154.856,495.965,1154.772 M492.108,1158.432c-0.004-0.85-0.022-1.691-0.062-2.519 C491.218,1156.679,491.531,1157.595,492.108,1158.432 M523.384,1156.767c-0.44,0.172-0.625,0.502-0.564,1 c0.317,0.026,0.951,0.079,1.268,0.106C524.018,1157.296,524.296,1155.961,523.384,1156.767 M504.245,1161.959 c-0.251,0.709-0.009,0.938,0.722,0.691C505.209,1161.92,504.967,1161.686,504.245,1161.959 M414.568,1164.091 c-0.295,0.528,0.63,1.035,1.044,0.683C415.898,1164.219,414.968,1163.721,414.568,1164.091 M520.103,1166.971 c0.401,0.383,0.89,0.63,1.475,0.735c-0.233-0.616-0.194-1.378-0.793-1.757C520.169,1165.826,520.209,1166.562,520.103,1166.971 M405.857,1166.738c0.396,0.277,1.185,0.837,1.577,1.114c-0.154,0.41-0.304,0.828-0.454,1.26c0.449,0.559,0.876,1.145,1.282,1.762 c0.7-0.141,1.414-0.247,2.127-0.348c0.163,0.524,0.326,1.057,0.489,1.599c0.612-0.211,1.229-0.401,1.854-0.573 c-0.973-0.991-2.048-1.88-2.889-2.982c-0.22-0.136-0.669-0.414-0.89-0.55c-0.225-0.035-0.678-0.101-0.903-0.132 C407.535,1167.182,406.693,1166.821,405.857,1166.738 M431.606,1168.226C430.928,1169.534,433.064,1168.279,431.606,1168.226 M518.293,1171.388c0.537-0.784,1.352-1.599,1.008-2.634C517.659,1168.314,517.998,1170.459,518.293,1171.388 M413.775,1170.714 c-0.515,0.634,0.595,1.348,1.039,0.713C415.334,1170.781,414.198,1170.045,413.775,1170.714 M502.452,1170.736 c-1.183,2.316-0.771,2.095-2.246,3.519c0.912,0.013,1.823,0.207,2.735,0.313c0.524-0.308,0.942-0.775,1.414-1.154 c0.198,0.101,0.595,0.304,0.793,0.405c0.625-0.374,1.312-0.727,1.665-1.4c-0.564-1.141-1.854-0.744-2.801-0.515 C503.487,1171.525,502.959,1171.106,502.452,1170.736 M517.778,1171.609c-0.471,0.273-1.039,0.916-0.731,1.502 C517.791,1173.41,519.086,1171.265,517.778,1171.609 M421.966,1173.291c-0.423,0.599,0.59,1.449,1.079,0.854 C423.442,1173.52,422.455,1172.687,421.966,1173.291 M429.321,1173.559c-1.127,0.709,1.59,1.061,1.696,0.291 C430.545,1173.489,429.876,1173.467,429.321,1173.559 M433.007,1173.427C433.253,1173.674,433.253,1173.674,433.007,1173.427 M508.199,1175.537c-0.018,0.599-0.026,1.207-0.026,1.828c1.163-0.401,2.325-0.81,3.479-1.246c0.81-0.665-0.233-0.881-0.722-1.163 C510.027,1175.184,509.107,1175.352,508.199,1175.537 M502.457,1178.254c0.524-0.269,0.643-1.387,0.009-1.559 C501.893,1176.906,501.84,1178.047,502.457,1178.254 M431.822,1177.047c0.15,1.196,2.358,3.022,3.228,2.7 C434.482,1178.391,433.113,1177.598,431.822,1177.047 M426.793,1177.761c-0.22,0.7,0.035,0.934,0.762,0.696 C427.762,1177.73,427.506,1177.501,426.793,1177.761 M511.762,1178.206c-0.529,0.476,0.189,1.563,0.837,1.158 C513.101,1178.862,512.392,1177.774,511.762,1178.206 M403.073,1178.65C403.329,1178.888,403.329,1178.888,403.073,1178.65 M502.421,1178.95C501.748,1180.28,503.879,1179.042,502.421,1178.95 M405.676,1179.756c-0.52,0.7-1.044,1.44-1.282,2.299 c0.101,0.92,1.18,1.224,1.801,1.775c0.656-0.339,1.317-0.656,1.986-0.96c-0.511-0.37-1.009-0.727-1.511-1.07 C406.522,1181.033,406.605,1179.989,405.676,1179.756 M419.588,1181.288c0.85,0.647,1.841,1.171,2.942,0.815 c-0.542-0.665-1.105-1.308-1.651-1.951C420.442,1180.518,420.011,1180.896,419.588,1181.288 M509.256,1181.293 c-0.211,0.7,0.04,0.951,0.762,0.762C510.221,1181.341,509.97,1181.086,509.256,1181.293 M425.996,1182.486 c-0.07,1.114-0.674,2.497,0.33,3.387c0.004-0.815-0.013-1.607-0.026-2.4c0.405-0.044,1.211-0.137,1.612-0.185 C427.273,1182.993,426.634,1182.737,425.996,1182.486 M503.844,1184.653c-0.053,0.344-0.159,1.035-0.211,1.378 c0.41,0,1.224,0,1.634,0c-0.009-0.405-0.022-1.215-0.031-1.621C504.888,1184.472,504.192,1184.591,503.844,1184.653 M437.481,1185.186C437.737,1185.428,437.737,1185.428,437.481,1185.186 M509.071,1185.102c0.009,0.564,0.026,1.132,0.048,1.713 c0.343,0.04,1.022,0.123,1.361,0.163c-0.018-0.361-0.057-1.083-0.079-1.444C509.952,1185.38,509.512,1185.239,509.071,1185.102 M411.701,1186.842c0.079-0.568-0.608-0.991-1.053-1.15C409.789,1186.018,411.124,1187.181,411.701,1186.842 M486.655,1186.045 c-0.229,0.682,0.031,0.903,0.775,0.665C487.651,1186.005,487.395,1185.78,486.655,1186.045 M413.229,1187.683 c-0.101,0.506-0.304,1.524-0.405,2.03c0.766,0.141,1.533,0.247,2.316,0.37C414.916,1188.986,414.096,1188.273,413.229,1187.683 M473.083,1189.295c-0.449,0.594,0.59,1.211,1.004,0.665C474.531,1189.352,473.479,1188.749,473.083,1189.295 M434.169,1190.761 c0.035,0.348,0.101,1.035,0.137,1.383c0.753-0.075,2.18,0.449,1.947-0.828C435.922,1190.246,434.98,1190.466,434.169,1190.761 M450.984,1191.144C450.266,1192.439,452.433,1191.254,450.984,1191.144 M453.049,1192.228c0.079,0.577,0.388,0.674,0.929,0.282 C453.886,1191.906,453.578,1191.809,453.049,1192.228 M433.786,1194.465c0.982,0.22,2.453,0.396,2.383-1.092 C435.187,1193.285,434.385,1193.712,433.786,1194.465 M504.826,1203.185C504.914,1204.647,506.121,1202.48,504.826,1203.185 M227.172,1288.211c0.097,2.131,0.652,4.201,0.978,6.311c-0.163,0.282-0.489,0.85-0.652,1.132c0.264,0.013,0.802,0.035,1.066,0.048 c0.022-1.982-0.26-4.126,0.982-5.826c-0.343-0.577-0.691-1.145-1.035-1.696C228.176,1288.189,227.507,1288.202,227.172,1288.211 M245.338,1297.609c-0.167,0.608,0.057,0.832,0.678,0.687C246.17,1297.675,245.946,1297.446,245.338,1297.609 M201.149,1301.7 c0.159,0.621,0.335,1.273,0.511,1.916c0.511,0.009,1.026,0.026,1.541,0.062c1.418,1.537,2.519,3.299,3.629,5.065 c0.04,0.229,0.119,0.678,0.159,0.903c0.374,0.546,0.757,1.114,1.493,1.229c-0.308-0.454-0.621-0.885-0.934-1.303 c-0.225-1.401-0.771-2.805-0.476-4.223c0.251-1.233,0.484-2.484,0.401-3.739c-0.524,0.647-1.035,1.321-1.541,1.999 c-0.225-0.004-0.665-0.013-0.885-0.018C204.25,1302.207,202.739,1301.392,201.149,1301.7 M195.032,1308.104 c0.841,0.652,1.832,0.978,2.911,0.85c-0.101-0.788-0.674-1.189-1.339-1.458C196.08,1307.69,195.556,1307.892,195.032,1308.104 M61.734,1324.394c-0.238,0.7,0.004,0.947,0.727,0.731C62.699,1324.398,62.456,1324.151,61.734,1324.394 M78.738,1332.576 c0.251-0.537-0.092-1.229-0.511-1.55C77.513,1331.18,78.051,1332.752,78.738,1332.576 M79.077,1333.232 c-0.229,0.462-0.11,0.85,0.357,1.158C80.253,1334.404,79.729,1332.942,79.077,1333.232z" id="path30"/></g></svg>