<?xml version="1.0" encoding="UTF-8"?>
<svg viewBox="0 0 640 480" xmlns="http://www.w3.org/2000/svg">
 <g fill="#b2b2b2" stroke="#000">
  <g fill-rule="evenodd">
   <path d="m217.4 124.14l5.0733 4.926 9.7488 4.1774-14.598 1.054 22.622 5.0571 24.54 53.607-3.8716 9.4041-20.766 5.5977-13.726-10.3 5.2794-15.897-4.2235-4.926-3.8716-7.3889-1.7598-8.5085-3.5196-3.8064-5.6314-5.3738 1.4078-7.6129 2.1118-7.8367-2.1118-2.2391v-5.3738l3.2957-4.5596z"/>
   <path d="m294.71 178.86l-4.9275-2.2391-2.1118-7.165-3.1676-7.6128-1.4079-4.0304-0.3519-6.4933-5.9833-7.165-5.2794-7.3889-2.4637-5.5977-0.7039-2.6869-2.4637 0.2239-3.5196 1.3434-1.7598 0.8957-3.1676-3.5825-10.207-5.3738-9.503-5.8216-4.9274-1.5674-3.5196 1.3434-6.3353-3.1347-3.5196 0.2239-1.4079 2.6869 0.7039 2.9108-1.0559 1.1195 0.7039 5.1499 2.1118 5.1498 1.0559 6.2694 4.9275 9.1802 8.0951 12.987 4.2235 9.1802 5.9834 10.524 9.151 7.8368 8.799 3.3586 7.7432 4.926 7.7432 7.165 16.542-22.615z"/>
  </g>
  <path d="m290.66 215.54c-1.4822-0.22284-5.1471-1.2338-8.5586-2.3609-3.2815-1.0842-6.7457-2.2108-7.6982-2.5036-0.95248-0.29282-1.7287-0.64908-1.7249-0.79166 0.003754-0.14261 0.63223-2.3594 1.3967-4.9262l1.3898-4.6669-1.2739-1.3555c-1.7265-1.8371-4.8201-4.2339-5.2478-4.0657-0.19132 0.075226-0.35181 0.62573-0.35666 1.2234-0.012726 1.5695-1.3557 5.2033-2.8033 7.585-5.2162 8.582-17.422 12.58-29.576 9.6869-4.7919-1.1406-8.7947-3.6967-11.394-7.2762-2.9762-4.098-3.9091-8.806-2.69-13.576 0.61432-2.4039 2.8638-5.9486 5.5692-8.7761l2.1953-2.2943-1.4054-1.9837c-3.4386-4.8534-5.9941-10.63-6.7614-15.282-0.4248-2.5764-1.5237-4.1045-5.356-7.4484-1.4677-1.2806-2.9706-2.9034-3.3399-3.6061-1.239-2.358-0.7973-6.2605 1.4338-12.668 0.81928-2.3529 0.83719-2.5999 0.24576-3.389-1.0392-1.3862-1.6754-4.632-1.4198-7.2427 0.25552-2.61 1.0627-4.3812 2.4136-5.296 0.82257-0.55704 0.84433-0.68552 0.38464-2.2726-0.52551-1.8144-0.32645-2.8413 0.6955-3.5882 0.47568-0.34769 0.65036-1.0354 0.65848-2.5927 0.013336-2.5563 0.90271-3.6044 3.4746-4.0946 2.2008-0.4195 3.5928-0.001953 6.2717 1.8813 1.189 0.83588 2.3013 1.5198 2.4717 1.5198 0.17044 0 0.67053-0.29169 1.1113-0.64816 1.6818-1.3601 5.5401-0.52719 9.5204 2.0553 3.0606 1.9858 7.1443 4.2642 12.429 6.9345 4.3579 2.2021 6.1133 3.3745 7.3375 4.9012 1.0646 1.3275 1.8181 1.5113 2.8328 0.69067 1.5246-1.2331 5.2779-1.9187 6.4436-1.1772 0.26898 0.17111 0.48908 0.64865 0.48908 1.0612 0 1.5709 1.7425 6.1196 3.2829 8.5701 0.88272 1.4042 2.8874 3.994 4.4549 5.7552 5.2836 5.9366 6.393 7.9065 6.9163 12.28 0.215 1.7976 0.75427 4.0259 1.1983 4.9517 1.4884 3.1033 2.4877 5.9084 3.5278 9.9028 0.56802 2.1815 1.2054 4.3803 1.4163 4.8862 0.42542 1.0205 1.9278 2.0338 4.0045 2.7009 1.3066 0.41974 1.4527 0.41538 3.336-0.10004 2.5362-0.69409 5.486-0.68896 8.4513 0.014648 1.2833 0.30454 3.617 0.82953 5.1861 1.1667 1.5691 0.33719 3.6303 0.79724 4.5805 1.0223l1.7276 0.4093-1.4413 0.9519c-1.8462 1.2193-5.4222 4.6243-7.1038 6.7639-4.117 5.2384-7.6355 12.648-11.597 24.422-0.36514 1.0851-0.88635 2.1514-1.1583 2.3694-0.75092 0.6022-3.0595 0.70981-5.9396 0.27682zm-39.345-14.867c3.8746-1.2417 8.1792-3.9718 9.856-6.2511 2.0806-2.8282 2.0418-2.9297-1.7456-4.5601-10.663-4.5903-19.551-13.745-22.621-23.3-0.45422-1.4136-1.1083-3.1938-1.4535-3.9559-0.59433-1.3123-0.68576-1.3767-1.7258-1.2167-0.604 0.092987-2.0582 0.57071-3.2316 1.0616-1.1733 0.49091-2.2279 0.89255-2.3434 0.89255-0.52905 0-0.10336-0.78332 1.0596-1.95l1.2697-1.2737-1.713-2.2125c-0.94214-1.2169-2.5224-3.1114-3.5117-4.2102-1.8364-2.0397-3.0205-4.321-3.0205-5.8196 0-1.541 0.71939-1.144 1.8353 1.013 1.5737 3.0417 7.9179 10.559 8.9139 10.562 1.0429 0.003052 0.71451-0.95764-1.2167-3.5595-1.9826-2.6712-11.599-19.183-12.179-20.912-0.43491-1.2964-0.95441-0.41754-1.8241 3.0862-0.45987 1.8526-1.0962 4.1267-1.4142 5.0536-1.0479 3.0549-1.4925 6.4909-1.0954 8.466 0.315 1.5669 0.62622 2.0695 2.0066 3.2409 4.2284 3.5881 5.6613 5.804 6.4247 9.9357 0.3169 1.7149 0.9516 3.993 1.4104 5.0626 2.0082 4.681 6.6621 11.325 9.4438 13.483 2.8398 2.2027 3.6959 3.4594 3.9101 5.7397 0.16995 1.8097 0.0849 2.0992-0.98453 3.3491-2.0955 2.4493-1.3726 5.973 1.6021 7.8095 1.9688 1.2156 3.3652 1.5068 6.8456 1.4281 2.1389-0.04837 3.2658-0.24542 5.502-0.96204zm26.083-5.3224c1.8687-4.1343 7.2718-9.949 12.581-13.539 1.6885-1.1419 3.07-2.1424 3.07-2.2235 0-0.081024-0.83148-0.45731-1.8477-0.83618-2.1664-0.80771-3.0429-1.7425-3.0429-3.2452 0-1.333-1.3704-6.4609-2.3843-8.9218-0.41128-0.9982-1.4413-2.9156-2.2889-4.2608-1.4384-2.2827-1.5549-2.6719-1.7472-5.8336-0.27957-4.5976-1.3185-6.4135-7.5626-13.218-1.0356-1.1285-2.4192-2.9953-3.0748-4.1484-1.3531-2.38-2.9124-6.8785-2.9124-8.402 0-1.8043-1.5751-1.9525-4.4416-0.41806-1.5893 0.85077-1.5727 0.98144 0.59665 4.7013 1.6634 2.8522 5.3061 7.6026 7.8852 10.283 0.94138 0.97824 1.6412 1.8234 1.5552 1.8781-0.39291 0.24991-3.6866-1.896-5.3254-3.4697-3.042-2.921-4.6066-4.9669-6.3888-8.3542-3.0284-5.756-4.5132-7.0281-14.26-12.218-2.5772-1.3722-6.5635-3.6182-8.8585-4.991-2.295-1.3729-4.459-2.4961-4.809-2.4961-1.0733 0-3.0412 0.7681-3.0412 1.187 0 1.0633 4.777 4.8771 11.503 9.184 7.9499 5.0904 10.19 7.1233 13.534 12.282 2.0855 3.2173 4.382 5.7877 6.9928 7.8268 1.8689 1.4597 1.6832 1.7889-0.58795 1.0418-2.1412-0.70441-4.5602-2.7196-6.6516-5.5412-7.2229-9.7451-8.4399-10.915-16.223-15.595-5.1157-3.0761-6.237-3.912-9.6239-7.1739-4.2116-4.0561-6.119-5.2861-8.1975-5.2861-1.7492 0-2.5744 0.81598-2.8614 2.8291-0.21985 1.5424-0.21442 1.5522 0.95432 1.7125 4.4122 0.60541 5.7381 1.3462 9.285 5.1871 2.1941 2.376 4.3788 4.2491 8.9699 7.6902 6.1122 4.5813 7.5831 6.3909 11.437 14.07 2.3997 4.7813 2.4553 4.9196 1.8853 4.6956-0.82352-0.32379-3.1648-3.3593-5.6111-7.275-2.9503-4.7224-5.1344-6.9666-10.472-10.76-3.9345-2.7962-5.31-4.0084-8.6009-7.5801-2.5048-2.7185-3.8414-3.6078-6.1522-4.0929-2.1358-0.44842-2.497-0.11649-1.9105 1.7558 0.70236 2.2423 1.1002 6.2874 0.61835 6.2874-0.22302 0-0.77139-0.61255-1.2185-1.3612-0.44714-0.74866-1.0634-1.3612-1.3696-1.3612-0.99493 0-1.6334 2.6033-1.4624 5.9633 0.17538 3.4476 0.448 4.2063 1.3419 3.7343 0.31006-0.1637 0.56375-0.44031 0.56375-0.61462 0-0.17435 0.36679-0.52814 0.81509-0.78626 0.56131-0.32315 0.81583-0.7999 0.81738-1.531 0.003235-1.5115 0.72034-2.9565 1.619-3.2625 1.2649-0.43066 3.0609-0.29993 4.5337 0.32999 2.0511 0.87729 7.36 6.8922 10.382 11.763 0.87137 1.4043 3.1006 4.5172 4.954 6.9177 1.8533 2.4004 3.3697 4.4741 3.3697 4.6081 0 0.5224-1.9591-0.61472-3.9442-2.2893-2.6076-2.1997-4.6311-4.7611-6.0016-7.5971-0.58404-1.2086-1.8405-3.0797-2.7921-4.158s-2.8306-3.2058-4.1755-4.7276c-2.4982-2.8268-3.3967-3.3058-4.265-2.2737-0.67819 0.80615-0.52328 1.5368 1.4162 6.6802 1.5236 4.0405 2.6124 6.1166 6.3637 12.134 6.059 9.7193 7.4617 12.255 9.3593 16.921 1.7642 4.3375 2.4666 5.597 4.6939 8.4186 4.4871 5.6842 11.895 11.137 18.815 13.849 1.7322 0.67899 3.9131 1.6248 4.8463 2.1018 1.6413 0.83893 6.0175 4.2368 7.0315 5.4596 0.27328 0.32953 0.69659 0.55676 0.94067 0.50497 0.24411-0.051727 0.86298-1.0214 1.3752-2.1547z"/>
 </g>
</svg>
