<?xml version="1.0" encoding="UTF-8"?>
<svg viewBox="0 0 500 500" xmlns="http://www.w3.org/2000/svg">
 <g transform="matrix(1.3453 0 0 1.3453 -258.06 -512.31)">
  <path d="m460.63 574.56s-63.64-95.964-132.33-87.883-105.06 94.954-105.06 94.954 33.335 34.345 74.751 45.457 67.68 10.102 114.15-16.162 116.17-87.883 121.22-94.954-15.152 30.305-17.173 63.64 8.0812 68.69 8.0812 68.69z" fill="none" stroke="#000" stroke-width="5"/>
  <path d="m291.93 543.25c0 6.6947-4.9749 12.122-11.112 12.122s-11.112-5.4271-11.112-12.122 4.9749-12.122 11.112-12.122 11.112 5.4271 11.112 12.122z" fill="#fff" stroke="#000" stroke-linecap="square" stroke-width="5"/>
  <path d="m493.83 611.36c-14.964-17.311-27.728-32.198-28.364-33.083-0.97786-1.361 0.79549-3.1502 11.505-11.608 14.691-11.602 39.529-32.695 48.129-40.874 3.2979-3.136 5.6035-4.758 5.1719-3.6383-16.448 42.665-18.954 69.015-10.511 110.52 1.0632 5.2264 1.7852 9.6504 1.6045 9.8311s-12.572-13.835-27.536-31.146z" fill="#fff"/>
  <path d="m274.26 550.87c-2.5498-2.5498-3.1082-3.9247-3.1082-7.6538 0-12.23 15.919-14.68 19.049-2.9307 2.7903 10.473-8.5337 17.992-15.941 10.585z" fill="#fff"/>
  <path d="m322.78 629.16c-19.578-2.9971-33.674-7.3608-49.05-15.184-15.741-8.0084-36.207-22.353-44.208-30.984l-2.3438-2.5286 3.0682-6.078c16.826-33.332 43.378-62.572 68.29-75.204 33.163-16.815 65.065-11.801 102.23 16.068 15.034 11.273 37.562 34.523 51.718 53.374l5.31 7.0711-3.3623 2.853c-4.3925 3.7272-23.639 17.158-32.646 22.781-39.683 24.775-67.637 32.634-99.005 27.831zm-32.28-75.386c9.5799-10.454 1.3608-27.327-12.332-25.317-6.8723 1.0086-12.489 10.075-11.037 17.816 0.74454 3.9687 4.8114 9.4085 8.0893 10.82 1.1565 0.49805 4.3474 0.74088 7.0908 0.53962 4.1605-0.30521 5.5192-0.94544 8.1889-3.8586z" fill="#fff" stroke="#000" stroke-linecap="square" stroke-width="5.0508"/>
  <path d="m511.15 630.04c-23.263-26.25-45.175-52.329-44.768-53.28 0.25012-0.58539 8.2226-7.4283 17.717-15.206s23.136-19.301 30.315-25.607 13.227-11.291 13.44-11.077-1.4299 6.0543-3.6512 12.98c-10.345 32.255-11.941 56.471-5.9088 89.662 1.1521 6.3396 1.944 11.677 1.7596 11.862s-4.1908-4.0156-8.9032-9.3332z" fill="#fff" stroke="#000" stroke-linecap="square" stroke-width="5.0508"/>
 </g>
</svg>
