<?xml version="1.0" encoding="UTF-8" standalone="no"?>
<svg
   xmlns:dc="http://purl.org/dc/elements/1.1/"
   xmlns:cc="http://creativecommons.org/ns#"
   xmlns:rdf="http://www.w3.org/1999/02/22-rdf-syntax-ns#"
   xmlns:svg="http://www.w3.org/2000/svg"
   xmlns="http://www.w3.org/2000/svg"
   xmlns:sodipodi="http://sodipodi.sourceforge.net/DTD/sodipodi-0.dtd"
   xmlns:inkscape="http://www.inkscape.org/namespaces/inkscape"
   inkscape:export-ydpi="163.2653"
   inkscape:export-xdpi="163.2653"
   inkscape:export-filename="C:\Users\Joshua\Desktop\Graphics Fun\XS-Supper.png"
   sodipodi:docname="XS-Supper.svg"
   inkscape:version="1.0 (4035a4fb49, 2020-05-01)"
   id="svg8"
   version="1.1"
   viewBox="0 0 264.58333 264.58334"
   height="1000"
   width="1000">
  <defs
     id="defs2" />
  <sodipodi:namedview
     inkscape:document-rotation="0"
     inkscape:snap-nodes="true"
     inkscape:snap-others="true"
     inkscape:snap-midpoints="true"
     inkscape:snap-smooth-nodes="true"
     inkscape:snap-intersection-paths="true"
     inkscape:object-nodes="true"
     inkscape:guide-bbox="true"
     showguides="true"
     inkscape:window-maximized="1"
     inkscape:window-y="-8"
     inkscape:window-x="-8"
     inkscape:window-height="1057"
     inkscape:window-width="1920"
     inkscape:object-paths="true"
     units="px"
     showgrid="false"
     inkscape:current-layer="layer1"
     inkscape:document-units="px"
     inkscape:cy="467.79173"
     inkscape:cx="500"
     inkscape:zoom="1"
     inkscape:pageshadow="2"
     inkscape:pageopacity="0.0"
     borderopacity="1.0"
     bordercolor="#666666"
     pagecolor="#ffffff"
     id="base" />
  <metadata
     id="metadata5">
    <rdf:RDF>
      <cc:Work
         rdf:about="">
        <dc:format>image/svg+xml</dc:format>
        <dc:type
           rdf:resource="http://purl.org/dc/dcmitype/StillImage" />
        <dc:title />
      </cc:Work>
    </rdf:RDF>
  </metadata>
  <g
     transform="translate(0,-32.41665)"
     id="layer1"
     inkscape:groupmode="layer"
     inkscape:label="Layer 1">
    <path
       inkscape:connector-curvature="0"
       inkscape:export-ydpi="489.79593"
       inkscape:export-xdpi="489.79593"
       id="path815"
       d="M 208.75625,158.35831 A 76.464587,76.464587 0 0 1 132.29167,234.8229 76.464587,76.464587 0 0 1 55.82708,158.35831 76.464587,76.464587 0 0 1 132.29167,81.893731 76.464587,76.464587 0 0 1 208.75625,158.35831 Z"
       style="opacity:1;fill:#d40000;fill-opacity:1;stroke:#333333;stroke-width:0;stroke-linecap:butt;stroke-linejoin:miter;stroke-miterlimit:4;stroke-dasharray:none;stroke-dashoffset:0;stroke-opacity:1" />
    <path
       inkscape:export-ydpi="489.79593"
       inkscape:export-xdpi="489.79593"
       inkscape:connector-curvature="0"
       id="path1799"
       d="m 107.05851,164.15133 25.82424,25.82079 1.01862,-29.13929 z"
       style="fill:#000000;stroke:none;stroke-width:0.26458332px;stroke-linecap:butt;stroke-linejoin:miter;stroke-opacity:1;opacity:0.2" />
    <path
       inkscape:export-ydpi="489.79593"
       inkscape:export-xdpi="489.79593"
       id="path1794"
       transform="matrix(0.26458333,0,0,0.26458333,0,32.41665)"
       d="M 578.81641 264.19141 L 511.50391 330.30469 L 499 688 L 445 720.81055 L 488.62109 764.43164 A 289.00001 289.00001 0 0 0 500 765 A 289.00001 289.00001 0 0 0 789 476 A 289.00001 289.00001 0 0 0 788.94141 474.32227 L 578.81641 264.19141 z "
       style="fill:#000000;stroke:none;stroke-width:0.99999994px;stroke-linecap:butt;stroke-linejoin:miter;stroke-opacity:1;opacity:0.2" />
    <path
       inkscape:export-ydpi="489.79593"
       inkscape:export-xdpi="489.79593"
       id="path1738"
       d="m 96.308332,136.08297 a 35.983336,39.422919 0 0 0 32.543748,39.20536 v 33.72042 a 14.552086,14.552086 0 0 0 -11.1125,14.12214 h 29.10417 a 14.552086,14.552086 0 0 0 -11.1125,-14.12369 v -33.68993 a 35.983336,39.422919 0 0 0 32.54375,-39.2343 z"
       style="opacity:1;fill:#ffe680;fill-opacity:1;stroke:none;stroke-width:0;stroke-linecap:butt;stroke-linejoin:miter;stroke-miterlimit:4;stroke-dasharray:none;stroke-dashoffset:0;stroke-opacity:1"
       inkscape:connector-curvature="0" />
    <path
       inkscape:export-ydpi="489.79593"
       inkscape:export-xdpi="489.79593"
       id="path1801"
       transform="matrix(0.26458333,0,0,0.26458333,0,32.41665)"
       d="M 492.48633 391.81055 L 421.87305 420.12305 L 536.83203 535.08203 A 136.00001 149.00001 0 0 0 636 391.81055 L 492.48633 391.81055 z "
       style="fill:#000000;stroke:none;stroke-width:0.99999994px;stroke-linecap:butt;stroke-linejoin:miter;stroke-opacity:1;opacity:0.2" />
    <circle
       inkscape:export-ydpi="489.79593"
       inkscape:export-xdpi="489.79593"
       style="opacity:1;fill:#ffccaa;fill-opacity:1;stroke:none;stroke-width:0;stroke-linecap:butt;stroke-linejoin:miter;stroke-miterlimit:4;stroke-dasharray:none;stroke-dashoffset:0;stroke-opacity:1"
       id="circle1735"
       cx="132.29167"
       cy="122.85381"
       r="29.268064" />
    <path
       inkscape:connector-curvature="0"
       inkscape:export-ydpi="489.79593"
       inkscape:export-xdpi="489.79593"
       id="rect1749"
       d="m 129.24779,99.439359 v 20.370571 h -20.37057 v 6.08776 h 20.37057 v 20.37057 h 6.08776 v -20.37057 h 20.37057 v -6.08776 H 135.33555 V 99.439359 Z"
       style="opacity:1;fill:#deaa87;fill-opacity:1;stroke:none;stroke-width:0;stroke-linecap:butt;stroke-linejoin:miter;stroke-miterlimit:4;stroke-dasharray:none;stroke-dashoffset:0;stroke-opacity:1" />
    <path
       inkscape:export-ydpi="489.79593"
       inkscape:export-xdpi="489.79593"
       inkscape:connector-curvature="0"
       id="circle1003"
       d="m 132.29167,80.57082 a 77.787496,77.787496 0 0 0 -77.7875,77.7875 77.787496,77.787496 0 0 0 77.7875,77.7875 77.787496,77.787496 0 0 0 77.7875,-77.7875 77.787496,77.787496 0 0 0 -77.7875,-77.7875 z m 0,2.64583 a 75.14166,75.14166 0 0 1 75.14167,75.14167 75.14166,75.14166 0 0 1 -75.14167,75.14166 75.14166,75.14166 0 0 1 -75.141666,-75.14166 75.14166,75.14166 0 0 1 75.141666,-75.14167 z"
       style="opacity:1;fill:#550000;fill-opacity:1;stroke:#333333;stroke-width:0;stroke-linecap:butt;stroke-linejoin:miter;stroke-miterlimit:4;stroke-dasharray:none;stroke-dashoffset:0;stroke-opacity:1" />
  </g>
</svg>
