<?xml version="1.0" encoding="UTF-8"?>
<svg viewBox="0 0 560 600" xmlns="http://www.w3.org/2000/svg">
 <defs>
  <linearGradient id="d" x1="1" y2="1">
   <stop stop-color="#7f003f" stop-opacity=".996" offset="0"/>
   <stop stop-color="#7f003f" stop-opacity=".996" offset=".40625"/>
   <stop stop-color="#bf005f" stop-opacity=".996" offset=".57422"/>
   <stop stop-color="#f00" stop-opacity=".996" offset=".82422"/>
   <stop stop-color="#f00" stop-opacity=".996" offset=".82812"/>
   <stop stop-color="#f00" stop-opacity=".996" offset=".85156"/>
   <stop stop-color="#fff" stop-opacity=".996" offset="1"/>
  </linearGradient>
  <radialGradient id="c">
   <stop stop-color="#ff0" offset="0"/>
   <stop stop-color="#f00" stop-opacity=".996" offset="1"/>
   <stop stop-color="#ff0" offset="1"/>
  </radialGradient>
 </defs>
 <g stroke-dasharray="null" stroke-linecap="null" stroke-linejoin="null">
  <g stroke-width="2">
   <ellipse cx="266" cy="310.38" rx="177" ry="182.63" fill="url(#c)"/>
   <ellipse cx="26" cy="168"/>
   <ellipse cx="151" cy="225"/>
   <ellipse cx="151" cy="224"/>
   <ellipse cx="115" cy="320" fill="#f00"/>
   <g fill="#999">
    <ellipse cx="113" cy="306"/>
    <ellipse cx="113" cy="306"/>
    <ellipse cx="113" cy="306"/>
   </g>
   <g fill="#f00">
    <ellipse cx="4" cy="155" ry="4"/>
    <ellipse cx="124" cy="64"/>
   </g>
  </g>
  <path d="m268.6 160.32s1.5621 3.7457 9.8914 4.37c5.7268 3.7466 7.8096 5.6194 7.8096 5.6194l6.7673 18.729-2.6026 13.735 7.8086 16.856v14.984l18.742 18.729s34.361 79.289 34.361 79.289l27.592 36.835s0.52066 5.6185 0.52066 5.6185l16.139 10.614s3.644 12.486 9.3708 15.608c-2.0829 8.1156-15.098-6.2437-15.098-6.2437s1.5612 10.614 12.494 23.1c2.0828 6.867-11.973 1.2485-13.015 1.2485-1.0414 0-8.851-8.1165-8.851-10.614 0-2.4971-2.6025-11.237-2.6025-14.359 0-3.1214-6.2475 25.597-6.2475 25.597l-10.412-1.8728-32.278-49.321s-15.098-21.227-15.098-21.227l-4.6854-20.602-3.6449 20.602-5.7268 4.3699c3.1242 0 5.206 4.3709 5.206 4.3709l23.948 90.526-127.55 0.62436s23.428-84.283 23.428-84.283l-60.912 58.062-7.8086-34.337-14.057 12.486s-18.221 3.7456-18.221 3.7456l-8.8504-1.8728c-1.5618-4.3709 6.2474-8.1166 6.2474-8.1166 5.2061-4.3699 12.495-2.4971 12.495-2.4971l7.809-10.614-9.3709 4.3709c0 3.1214-8.8504 0-8.8504 0-1.0412-3.1223 10.412-7.4923 11.974-11.238 5.2058-3.1214 12.495-3.1214 12.495-3.7457 0-0.62427 1.0414-6.2437 1.0414-6.2437l3.644 2.4971s46.335-54.94 46.335-54.94 1.0414-11.237 1.5612-11.861c0.52068-0.6243 10.413-15.608 10.413-15.608l7.288-28.719 22.907-20.603 4.1647-17.481c2.0828-6.868-3.644-44.951 23.428-56.189z" fill="#fff" stroke-width="0"/>
  <g stroke-width="2">
   <ellipse cx="194" cy="171" ry="1" fill="url(#d)" fill-opacity=".78"/>
   <path d="m226.68 372s-50.68 150-50.68 151 181 2 181 2l-56.713-160-73.607 7z" fill="#fff"/>
  </g>
 </g>
</svg>
